<svg width="60" height="60" viewBox="0 0 60 60" fill="none" xmlns="http://www.w3.org/2000/svg">
<path d="M38.9532 45.7617C38.7305 45.375 38.8594 44.8711 39.2461 44.6484C39.6329 44.414 40.1368 44.5546 40.3711 44.9414L42.668 48.9257L50.7891 40.8046C51.1055 40.4882 51.6211 40.4882 51.9493 40.8046C52.2657 41.1328 52.2657 41.6484 51.9493 41.9648L43.0782 50.8359C42.7032 51.2109 42.0586 51.1406 41.7891 50.6718L38.9532 45.7617ZM45.5157 33.539C47.9414 33.539 50.2032 34.2304 52.1133 35.4375C54.0469 28.2304 52.6172 20.4492 48.1524 14.4023C47.8829 14.039 47.9649 13.5234 48.3164 13.2539C48.6797 12.9843 49.1954 13.0664 49.4649 13.4179C54.3633 20.039 55.8399 28.6054 53.5196 36.457C59.0625 41.1445 59.4258 49.5703 54.2813 54.7148C49.1954 59.8007 40.875 59.5078 36.1524 54.0937C32.8008 55.1367 29.2735 55.4882 25.793 55.1601C22.6289 54.8554 19.5118 53.9765 16.5938 52.5234L18.0704 55.207C18.2813 55.6054 18.1407 56.0976 17.7422 56.3203C17.3438 56.5312 16.8516 56.3906 16.6289 55.9921L13.7579 50.7656C13.4649 50.2265 13.8399 49.5117 14.543 49.5586L20.4493 49.6757C20.9063 49.6875 21.2579 50.0625 21.2579 50.5078C21.2461 50.9648 20.8711 51.3164 20.4258 51.3046L17.7305 51.246C20.3555 52.5 23.1329 53.25 25.9571 53.5312C29.0274 53.8242 32.1329 53.5429 35.1094 52.6992C33.2579 49.8515 32.6368 46.3359 33.4688 42.9609C32.918 43.1601 32.3555 43.3359 31.793 43.4648V46.2304C31.793 46.6875 31.4297 47.0507 30.9727 47.0507H25.711C25.2539 47.0507 24.8907 46.6875 24.8907 46.2304V43.4765C23.3672 43.1132 21.9024 42.5039 20.5664 41.6836L18.6094 43.6406C18.293 43.9687 17.7657 43.9687 17.4493 43.6406L13.711 39.914C13.3946 39.5976 13.3946 39.0703 13.711 38.7539L15.668 36.7968C14.8477 35.4609 14.2383 34.0078 13.875 32.4726H11.1211C10.6641 32.4726 10.3008 32.1093 10.3008 31.6523V26.3906C10.3008 25.9336 10.6641 25.5703 11.1211 25.5703H13.8868C14.25 24.0351 14.8594 22.582 15.6797 21.2461L13.711 19.289C13.3946 18.9726 13.3946 18.4453 13.711 18.1289L17.4375 14.4023C17.7539 14.0859 18.2813 14.0859 18.5977 14.4023L20.5547 16.3593C21.8907 15.539 23.3438 14.9296 24.8789 14.5664V11.8007C24.8789 11.3437 25.2422 10.9804 25.6993 10.9804H30.961C31.418 10.9804 31.7813 11.3437 31.7813 11.8007V14.5664C33.3164 14.9296 34.7696 15.539 36.1055 16.3593L38.0625 14.4023C38.3789 14.0859 38.9063 14.0859 39.2227 14.4023L42.9493 18.1289C43.2657 18.4453 43.2657 18.9609 42.9493 19.289L40.9922 21.2461C41.8125 22.5703 42.4219 24.0351 42.7852 25.5703H45.5508C46.0079 25.5703 46.3711 25.9336 46.3711 26.3906V31.6523C46.3711 32.1211 45.9961 32.4843 45.4805 32.4609H42.7852L42.3516 33.9257C43.3594 33.6796 44.4258 33.539 45.5157 33.539ZM34.1836 40.8867C34.8047 39.4921 35.6719 38.2382 36.7383 37.1718C37.7579 36.1523 38.9532 35.3086 40.2774 34.6992C40.4883 34.2421 40.6875 33.7734 40.8516 33.2812C41.0508 32.707 41.2032 32.1211 41.3204 31.5117C41.3907 31.1367 41.7305 30.8437 42.1289 30.8437H44.7422V27.2109H42.1289C41.7422 27.2109 41.4024 26.9414 41.3204 26.5429C41.1563 25.6523 40.8868 24.7851 40.5469 23.9648C40.2071 23.1445 39.7852 22.3711 39.293 21.6445C39.0469 21.3164 39.0704 20.8593 39.3633 20.5664L41.2032 18.7265L38.6368 16.1601L36.7969 18C36.5274 18.2695 36.0938 18.3164 35.7539 18.0937C35.0157 17.5898 34.2188 17.1562 33.3868 16.8164C32.5782 16.4765 31.7344 16.2304 30.8672 16.0546C30.4571 16.0078 30.1407 15.6562 30.1407 15.2461V12.6328H26.5079V15.1992C26.5313 15.6093 26.25 15.9726 25.8399 16.0546C24.9375 16.2187 24.0821 16.4882 23.2618 16.8281C22.4414 17.1679 21.668 17.5898 20.9297 18.082C20.6133 18.3281 20.1446 18.3046 19.8516 18.0117L18.0118 16.1718L15.4454 18.7382L17.2852 20.5781C17.5547 20.8476 17.6016 21.2812 17.3789 21.6211C16.875 22.3593 16.4414 23.1562 16.1016 23.9882C15.7735 24.7968 15.5157 25.6406 15.3399 26.5078C15.293 26.9179 14.9532 27.2343 14.5313 27.2343H11.918V30.8554H14.5313C14.918 30.8554 15.2579 31.1367 15.3399 31.5234C15.5039 32.4257 15.7735 33.2812 16.1133 34.1015C16.4532 34.9218 16.875 35.6953 17.3672 36.4218C17.6133 36.7382 17.5899 37.207 17.2969 37.5L15.4571 39.3398L18.0235 41.9062L19.8633 40.0664C20.1329 39.7968 20.5664 39.75 20.9063 39.9726C21.6446 40.4765 22.4414 40.9101 23.2735 41.25C24.0821 41.5781 24.9258 41.8359 25.8047 42.0117C26.2149 42.0586 26.5313 42.3984 26.5313 42.8203V45.4336H30.1524V42.8203C30.1524 42.4336 30.4336 42.0937 30.8204 42.0117C31.9922 41.789 33.1172 41.4023 34.1836 40.8867ZM53.1329 38.332C48.9258 34.125 42.1055 34.125 37.8985 38.332C33.6914 42.539 33.6914 49.3593 37.8985 53.5664C42.1055 57.7734 48.9258 57.7734 53.1329 53.5664C57.3282 49.3593 57.3282 42.539 53.1329 38.332ZM38.6016 2.85933C38.3907 2.4609 38.5313 1.96871 38.9297 1.74605C39.3282 1.53511 39.8204 1.67574 40.043 2.06246L42.9141 7.28902C43.2071 7.82808 42.8321 8.54293 42.1289 8.49605L36.211 8.37886C35.7657 8.36715 35.4024 7.99215 35.4141 7.54683C35.4258 7.10152 35.8008 6.73824 36.2461 6.74996L38.9414 6.80855C34.3477 4.61715 29.2032 3.92574 24.2461 4.75777C12.8438 6.65621 4.26567 16.3242 3.73832 27.914C3.49223 33.457 5.10942 39.0351 8.51957 43.664C8.7891 44.0273 8.70707 44.5429 8.35551 44.8125C7.99223 45.082 7.4766 45 7.20707 44.6484C3.56254 39.7265 1.83988 33.7617 2.0977 27.8554C2.6602 15.4687 11.8125 5.15621 23.9766 3.12887C29.4141 2.22652 35.0743 3.04683 40.0782 5.54293L38.6016 2.85933ZM28.336 20.8945C32.8243 20.8945 36.4571 24.5273 36.4571 29.0156C36.4571 33.5039 32.8125 37.1367 28.336 37.1367C23.8477 37.1367 20.2032 33.5039 20.2032 29.0156C20.2032 24.539 23.8477 20.8945 28.336 20.8945ZM32.918 24.4453C30.3868 21.914 26.2735 21.914 23.7422 24.4453C21.211 26.9765 21.211 31.0781 23.7422 33.621C26.2735 36.1523 30.3868 36.1523 32.918 33.621C35.4493 31.0781 35.4493 26.9765 32.918 24.4453Z" fill="#FFD362"/>
</svg>
