<svg width="60" height="60" viewBox="0 0 60 60" fill="none" xmlns="http://www.w3.org/2000/svg">
<path d="M7.42528 52.6341C8.37063 52.3752 14.1979 50.7791 15.1448 50.5197C15.4484 51.3682 17.5373 57.2048 17.8409 58.053C18.0947 58.7636 18.7203 59.238 19.4733 59.2907C19.5196 59.2937 19.5652 59.2954 19.6109 59.2954C20.313 59.2954 20.9415 58.9162 21.2747 58.2812L26.964 47.34C27.1572 46.9682 27.0126 46.5098 26.6408 46.3166C26.269 46.1226 25.81 46.2677 25.6168 46.6398L19.9287 57.5786C19.8274 57.7728 19.65 57.7838 19.5789 57.7763C19.4929 57.7703 19.3382 57.7319 19.27 57.5413L17.5863 52.8349L21.0678 46.1439C21.2617 45.7719 21.117 45.3138 20.7452 45.1202C20.3727 44.927 19.915 45.0716 19.7218 45.443L16.8891 50.8864L16.3379 49.3455C16.2038 48.9713 15.8036 48.7614 15.4212 48.8688L13.8401 49.302L16.5934 44.0067C16.7867 43.635 16.6421 43.1765 16.2697 42.9833C15.8991 42.7891 15.4395 42.9341 15.2463 43.3065L11.8447 49.8489L7.02274 51.1704C6.82528 51.2261 6.70552 51.1205 6.65102 51.0529C6.60661 50.9984 6.51403 50.8504 6.61188 50.6613L12.7079 38.9368C12.9011 38.5651 12.7565 38.1066 12.3841 37.9134C12.0135 37.7198 11.5539 37.8645 11.3607 38.2366L5.26411 49.9624C4.91489 50.6368 4.99493 51.4216 5.47223 52.0098C5.94837 52.5968 6.69661 52.8349 7.42528 52.6341Z" fill="#FFD362"/>
<path d="M47.6166 37.9135C47.2442 38.1068 47.0996 38.5652 47.2928 38.9369L53.3882 50.6602C53.4866 50.8506 53.3942 50.9986 53.3496 51.0531C53.295 51.1203 53.1741 51.2261 52.9749 51.1695L48.156 49.8491L44.7544 43.3066C44.5612 42.9343 44.1016 42.7892 43.731 42.9834C43.3586 43.1766 43.214 43.6351 43.4072 44.0068L46.1605 49.3022L44.5795 48.8689C44.197 48.7627 43.7968 48.9718 43.6628 49.3456L43.1116 50.8865L40.2789 45.4432C40.0855 45.0717 39.6278 44.927 39.2555 45.1203C38.8838 45.3139 38.7391 45.772 38.9329 46.1441L42.4145 52.835L40.7308 57.5418C40.6626 57.7319 40.5079 57.7705 40.4219 57.7763C40.3531 57.7837 40.174 57.7725 40.0732 57.581L34.384 46.6398C34.1908 46.2677 33.7323 46.1236 33.36 46.3166C32.9883 46.5098 32.8436 46.9683 33.0368 47.34L38.7272 58.2835C39.0592 58.9165 39.6878 59.2953 40.3899 59.2953C40.4356 59.2953 40.4812 59.2936 40.5275 59.2906C41.2805 59.2379 41.9061 58.7635 42.1599 58.0535C42.462 57.2092 44.5537 51.3645 44.856 50.5196C45.7966 50.7772 51.6413 52.3781 52.5726 52.6331C53.3001 52.8365 54.052 52.5969 54.5287 52.0097C55.006 51.4215 55.086 50.6367 54.7362 49.9611L48.6402 38.2366C48.4461 37.8647 47.9866 37.7199 47.6166 37.9135Z" fill="#FFD362"/>
<path d="M30.0007 37.3351C37.6828 37.3351 43.933 31.0852 43.933 23.403C43.933 15.7208 37.6828 9.47107 30.0007 9.47107C22.3186 9.47107 16.0684 15.7209 16.0684 23.4031C16.0684 31.0854 22.3184 37.3351 30.0007 37.3351ZM30.0007 10.989C36.8462 10.989 42.415 16.5579 42.415 23.4031C42.415 30.2484 36.8461 35.8172 30.0007 35.8172C23.1553 35.8172 17.5863 30.2483 17.5863 23.403C17.5863 16.5577 23.1552 10.989 30.0007 10.989Z" fill="#FFD362"/>
<path d="M24.8302 25.9382L24.0742 30.3506C23.9858 30.862 24.1922 31.3693 24.612 31.6745C25.0338 31.9809 25.5797 32.0181 26.0374 31.7777L30 29.6941L33.9626 31.7777C34.4227 32.0193 34.9688 31.979 35.3881 31.6745C35.8078 31.3692 36.0142 30.862 35.9264 30.3511L35.1699 25.9382L38.3753 22.8134C38.747 22.4511 38.8787 21.9195 38.7181 21.4259C38.558 20.9325 38.1388 20.5795 37.6253 20.505L33.1949 19.8611L31.2138 15.8466C30.9838 15.3811 30.5189 15.092 30.0001 15.092C29.4813 15.092 29.0165 15.3811 28.7864 15.8466L26.8054 19.8611L22.375 20.505C21.8615 20.5795 21.4423 20.9325 21.2822 21.4259C21.1215 21.9195 21.2531 22.4511 21.625 22.8134L24.8302 25.9382ZM27.1095 21.3506C27.55 21.2866 27.9313 21.0097 28.1282 20.6103L30.0001 16.8173L31.8721 20.61C32.069 21.0097 32.4502 21.2866 32.8914 21.3507L37.0776 21.9593L34.0483 24.9125C33.7293 25.2237 33.584 25.6717 33.6593 26.1097L34.3738 30.279L30.6294 28.3101C30.4326 28.2072 30.2167 28.1553 30.0004 28.1553C29.7845 28.1553 29.5681 28.2072 29.37 28.3107L25.6266 30.2788L26.3405 26.1105C26.4164 25.6717 26.2711 25.2237 25.9515 24.9119L22.9228 21.9593L27.1095 21.3506Z" fill="#FFD362"/>
<path d="M10.2653 27.6853C10.7728 28.1709 10.9656 28.891 10.7681 29.5649L10.0257 32.1044C9.4821 33.9635 10.5986 35.895 12.4805 36.3517L15.0497 36.9754C15.7334 37.1415 16.2616 37.6698 16.4277 38.3537L17.0515 40.9235C17.5087 42.8036 19.4405 43.9223 21.2987 43.3776L23.8389 42.635C24.513 42.4379 25.2335 42.6309 25.7184 43.1381L27.5501 45.0533C28.8814 46.4458 31.1098 46.4565 32.4513 45.0533L34.283 43.1385C34.768 42.6315 35.4866 42.4379 36.1625 42.635L38.7027 43.3776C40.5525 43.92 42.491 42.8117 42.9493 40.9231L43.5731 38.3539C43.7392 37.6697 44.2675 37.1416 44.9517 36.9759L47.5209 36.3519C49.3997 35.8953 50.5201 33.9661 49.9757 32.1047L49.2327 29.5649C49.0352 28.8907 49.2286 28.1706 49.7361 27.6853L51.6513 25.8537C53.0493 24.5171 53.0489 22.2886 51.6513 20.9524L49.7361 19.1208C49.2286 18.6355 49.0352 17.9154 49.2333 17.2412L49.9757 14.7016C50.5185 12.8457 49.4054 10.9124 47.5209 10.4544L44.9517 9.8306C44.268 9.66455 43.7398 9.13627 43.5737 8.45236L42.9499 5.88256C42.4923 4.00123 40.5613 2.88455 38.7027 3.42842L36.1625 4.17103C35.4884 4.36732 34.7692 4.17549 34.283 3.66795L32.4513 1.75275C31.12 0.360214 28.8916 0.34955 27.5501 1.75275L25.7184 3.6676C25.2322 4.17549 24.5123 4.36697 23.8389 4.17103L21.2987 3.42842C19.4455 2.88478 17.5096 3.99783 17.0521 5.88291L16.4283 8.45213C16.2622 9.13603 15.7339 9.66443 15.0503 9.83037L12.4805 10.4542C10.6017 10.9107 9.48128 12.84 10.0257 14.7014L10.7687 17.2412C10.9662 17.9154 10.7728 18.6355 10.2653 19.1208L8.35007 20.9524C6.95214 22.2889 6.9525 24.5175 8.35007 25.8537L10.2653 27.6853ZM9.39949 22.0494L11.3147 20.2178C12.2332 19.3393 12.5824 18.0357 12.226 16.8152L11.4831 14.2751C11.1836 13.2525 11.795 12.1826 12.8386 11.9294L15.4084 11.3056C16.6465 11.0047 17.6028 10.0486 17.9034 8.81025L18.5272 6.24103C18.7784 5.20369 19.8445 4.58447 20.8728 4.88529L23.413 5.62791C24.6333 5.98603 25.9365 5.63564 26.8153 4.71689L28.6469 2.8017C29.3609 2.0558 30.6404 2.0558 31.3543 2.8017L33.186 4.71725C34.0648 5.63541 35.3686 5.98615 36.5883 5.62803L39.1284 4.88541C40.1644 4.58353 41.2239 5.20967 41.4746 6.24115L42.0984 8.8106C42.399 10.0489 43.3555 11.0051 44.5935 11.306L47.1627 11.9298C48.2006 12.1816 48.8194 13.2467 48.5182 14.2758L47.7764 16.815C47.4189 18.0353 47.7675 19.3391 48.6866 20.2179L50.6018 22.0495C51.3738 22.7866 51.3748 24.0188 50.6018 24.7569L48.6866 26.5885C47.7681 27.467 47.4189 28.7706 47.7752 29.9911L48.5182 32.5312C48.8177 33.5538 48.2062 34.6237 47.1627 34.8769L44.5935 35.5009C43.3548 35.8012 42.399 36.7574 42.0977 37.9959L41.4739 40.5651C41.2234 41.6005 40.1586 42.2223 39.1283 41.9209L36.5882 41.1783C35.3685 40.8217 34.0646 41.1709 33.1859 42.0893L31.3542 44.0045C30.6403 44.7504 29.3607 44.7504 28.6468 44.0045L26.8152 42.0889C25.9319 41.1658 24.6262 40.8231 23.4129 41.1781L20.8727 41.9208C19.8348 42.2232 18.7768 41.5945 18.5265 40.565L17.9027 37.9956C17.6021 36.7572 16.6457 35.8011 15.4077 35.5002L12.8385 34.8764C11.8025 34.625 11.1812 33.5615 11.483 32.5304L12.2248 29.9912C12.5823 28.7713 12.2337 27.4673 11.3146 26.5883L9.39937 24.7567C8.62757 24.0197 8.62652 22.7874 9.39949 22.0494Z" fill="#FFD362"/>
</svg>
