<svg width="54" height="54" viewBox="0 0 54 54" fill="none" xmlns="http://www.w3.org/2000/svg">
<path d="M27.0586 39.6226C23.8017 39.6226 21.1523 36.9732 21.1523 33.7163C21.1523 30.4594 23.8017 27.8101 27.0586 27.8101C30.3155 27.8101 32.9648 30.4594 32.9648 33.7163C32.9648 36.9732 30.3155 39.6226 27.0586 39.6226ZM27.0586 29.4976C24.7298 29.4976 22.8398 31.3876 22.8398 33.7163C22.8398 36.0451 24.7298 37.9351 27.0586 37.9351C29.3873 37.9351 31.2773 36.0451 31.2773 33.7163C31.2773 31.3876 29.3873 29.4976 27.0586 29.4976Z" fill="#FFD362"/>
<path d="M36.3398 51.5026H17.7773C17.3133 51.5026 16.9336 51.1229 16.9336 50.6589V48.0348C16.9336 43.8498 20.3423 40.441 24.5273 40.441H29.5898C33.7748 40.441 37.1836 43.8498 37.1836 48.0348V50.6589C37.1836 51.1229 36.8039 51.5026 36.3398 51.5026ZM18.6211 49.8151H35.4961V48.0348C35.4961 44.7779 32.8467 42.1285 29.5898 42.1285H24.5273C21.2705 42.1285 18.6211 44.7779 18.6211 48.0348V49.8151Z" fill="#FFD362"/>
<path d="M11.0273 36.5681C7.77047 36.5681 5.12109 33.9187 5.12109 30.6619C5.12109 27.405 7.77047 24.7556 11.0273 24.7556C14.2842 24.7556 16.9336 27.405 16.9336 30.6619C16.9336 33.9187 14.2842 36.5681 11.0273 36.5681ZM11.0273 26.4431C8.69859 26.4431 6.80859 28.3331 6.80859 30.6619C6.80859 32.9906 8.69859 34.8806 11.0273 34.8806C13.3561 34.8806 15.2461 32.9906 15.2461 30.6619C15.2461 28.3331 13.3561 26.4431 11.0273 26.4431Z" fill="#FFD362"/>
<path d="M14.6133 48.4397H1.74609C1.28203 48.4397 0.902344 48.0601 0.902344 47.596V44.9719C0.902344 40.7869 4.31109 37.3782 8.49609 37.3782H13.5586C15.7945 37.3782 17.9123 38.3569 19.3552 40.0697C19.6589 40.4241 19.6083 40.9557 19.2539 41.2594C18.8995 41.5632 18.368 41.5125 18.0642 41.1582C16.942 39.825 15.2967 39.0657 13.5502 39.0657H8.48766C5.23078 39.0657 2.58141 41.715 2.58141 44.9719V46.7522H14.6048C15.0689 46.7522 15.4486 47.1319 15.4486 47.596C15.4486 48.0601 15.0689 48.4397 14.6048 48.4397H14.6133Z" fill="#FFD362"/>
<path d="M43.0898 36.5681C39.833 36.5681 37.1836 33.9187 37.1836 30.6619C37.1836 27.405 39.833 24.7556 43.0898 24.7556C46.3467 24.7556 48.9961 27.405 48.9961 30.6619C48.9961 33.9187 46.3467 36.5681 43.0898 36.5681ZM43.0898 26.4431C40.7611 26.4431 38.8711 28.3331 38.8711 30.6619C38.8711 32.9906 40.7611 34.8806 43.0898 34.8806C45.4186 34.8806 47.3086 32.9906 47.3086 30.6619C47.3086 28.3331 45.4186 26.4431 43.0898 26.4431Z" fill="#FFD362"/>
<path d="M52.3711 48.4397H39.5039C39.0398 48.4397 38.6602 48.0601 38.6602 47.596C38.6602 47.1319 39.0398 46.7522 39.5039 46.7522H51.5273V44.9719C51.5273 41.715 48.878 39.0657 45.6211 39.0657H40.5586C38.8205 39.0657 37.1752 39.825 36.0445 41.1582C35.7408 41.5125 35.2092 41.5547 34.8548 41.2594C34.5005 40.9557 34.4583 40.4241 34.7536 40.0697C36.2048 38.3569 38.3142 37.3782 40.5502 37.3782H45.6127C49.7977 37.3782 53.2064 40.7869 53.2064 44.9719V47.596C53.2064 48.0601 52.8267 48.4397 52.3627 48.4397H52.3711Z" fill="#FFD362"/>
<path d="M16.5038 24.9834C16.3182 24.9834 16.1241 24.9159 15.9723 24.7894C15.6094 24.494 15.5588 23.9625 15.8541 23.5997C18.6385 20.2247 22.7307 18.2925 27.1013 18.2925C31.4719 18.2925 35.5641 20.2247 38.3485 23.5912C38.6438 23.954 38.5932 24.4856 38.2388 24.7809C37.876 25.0762 37.3529 25.0256 37.0491 24.6712C34.5938 21.6928 30.9657 19.98 27.1098 19.98C23.2538 19.98 19.6257 21.6928 17.1619 24.6712C16.9932 24.8737 16.7569 24.975 16.5123 24.975L16.5038 24.9834Z" fill="#FFD362"/>
<path d="M45.9426 22.4438C45.622 22.4438 45.3014 22.3678 44.9976 22.2075L43.0654 21.1866C42.9726 21.1359 42.8545 21.1359 42.7533 21.1866L40.8211 22.2075C40.1292 22.5703 39.3192 22.5113 38.6948 22.0556C38.0704 21.6 37.7583 20.8406 37.8933 20.0813L38.2645 17.9297C38.2814 17.82 38.2476 17.7103 38.1633 17.6344L36.5939 16.1072C36.037 15.5672 35.8429 14.7741 36.0792 14.0316C36.3154 13.2891 36.9483 12.7659 37.7161 12.6563L39.8761 12.3441C39.9858 12.3272 40.0786 12.2597 40.1292 12.1584L41.0995 10.2009C41.4454 9.50906 42.1373 9.07031 42.9136 9.07031C43.6898 9.07031 44.3817 9.50063 44.7276 10.2009L45.6979 12.1584C45.7486 12.2597 45.8414 12.3272 45.9511 12.3441L48.1111 12.6563C48.8789 12.7659 49.5033 13.2975 49.7395 14.0316C49.9842 14.7656 49.7817 15.5672 49.2248 16.1072L47.6554 17.6344C47.5795 17.7103 47.5373 17.82 47.5626 17.9297L47.9339 20.0897C48.0689 20.8575 47.7567 21.6084 47.1323 22.0641C46.7779 22.3172 46.3645 22.4522 45.9426 22.4522V22.4438ZM42.9051 10.7494C42.8292 10.7494 42.6858 10.7747 42.6014 10.935L41.6311 12.8925C41.3358 13.4916 40.7704 13.905 40.1123 13.9978L37.9439 14.31C37.7667 14.3353 37.6992 14.4619 37.6739 14.5378C37.6486 14.6137 37.6317 14.7572 37.7583 14.8837L39.3276 16.4109C39.8001 16.875 40.0195 17.5416 39.9098 18.1997L39.5386 20.3597C39.5048 20.5369 39.6061 20.6381 39.6736 20.6888C39.7411 20.7309 39.8676 20.7984 40.0279 20.7141L41.9601 19.6931C42.5508 19.3809 43.2511 19.3809 43.8417 19.6931L45.7739 20.7141C45.9342 20.7984 46.0608 20.7309 46.1283 20.6888C46.1958 20.6466 46.297 20.5369 46.2633 20.3597L45.892 18.2081C45.7823 17.55 45.9933 16.8834 46.4742 16.4194L48.0436 14.8922C48.1701 14.7656 48.1533 14.6222 48.1279 14.5463C48.1026 14.4703 48.0351 14.3438 47.8579 14.3184L45.6979 14.0063C45.0398 13.9134 44.4661 13.5 44.1708 12.9009L43.2004 10.9434C43.1161 10.7831 42.9811 10.7578 42.8967 10.7578L42.9051 10.7494Z" fill="#FFD362"/>
<path d="M13.8801 22.4438C13.5595 22.4438 13.2389 22.3678 12.9351 22.2075L11.0029 21.1866C10.9017 21.1359 10.792 21.1359 10.6908 21.1866L8.75857 22.2075C8.06669 22.5703 7.25669 22.5113 6.63232 22.0556C6.00794 21.6 5.69575 20.8406 5.83075 20.0813L6.202 17.9297C6.21888 17.82 6.18513 17.7103 6.10075 17.6344L4.53138 16.1072C3.9745 15.5672 3.78044 14.7741 4.01669 14.0316C4.25294 13.2891 4.88575 12.7659 5.65357 12.6563L7.81357 12.3441C7.92325 12.3272 8.01607 12.2597 8.06669 12.1584L9.037 10.2009C9.38294 9.50906 10.0748 9.07031 10.8511 9.07031C11.6273 9.07031 12.3192 9.50063 12.6651 10.2009L13.6354 12.1584C13.6861 12.2597 13.7789 12.3272 13.8886 12.3441L16.0486 12.6563C16.8164 12.7659 17.4408 13.2975 17.677 14.0316C17.9217 14.7656 17.7192 15.5672 17.1623 16.1072L15.5929 17.6344C15.517 17.7103 15.4748 17.82 15.5001 17.9297L15.8714 20.0897C16.0064 20.8575 15.6942 21.6084 15.0698 22.0641C14.7154 22.3172 14.302 22.4522 13.8801 22.4522V22.4438ZM10.8426 10.7494C10.7667 10.7494 10.6233 10.7747 10.5389 10.935L9.56857 12.8925C9.27325 13.4916 8.70794 13.905 8.04982 13.9978L5.88138 14.31C5.70419 14.3353 5.63669 14.4619 5.61138 14.5378C5.58607 14.6137 5.56919 14.7572 5.69575 14.8837L7.26513 16.4109C7.73763 16.875 7.957 17.5416 7.84732 18.1997L7.47607 20.3597C7.44232 20.5369 7.54357 20.6381 7.61107 20.6888C7.67857 20.7309 7.80513 20.7984 7.96544 20.7141L9.89763 19.6931C10.4883 19.3809 11.1886 19.3809 11.7792 19.6931L13.7114 20.7141C13.8717 20.7984 13.9983 20.7309 14.0658 20.6888C14.1333 20.6466 14.2345 20.5369 14.2008 20.3597L13.8295 18.2081C13.7198 17.55 13.9308 16.8834 14.4117 16.4194L15.9811 14.8922C16.1076 14.7656 16.0908 14.6222 16.0654 14.5463C16.0401 14.4703 15.9726 14.3438 15.7954 14.3184L13.6354 14.0063C12.9773 13.9134 12.4036 13.5 12.1083 12.9009L11.1379 10.9434C11.0536 10.7831 10.9186 10.7578 10.8342 10.7578L10.8426 10.7494Z" fill="#FFD362"/>
<path d="M30.1304 15.8794C29.8097 15.8794 29.4891 15.8035 29.1854 15.6432L27.2532 14.6222C27.1604 14.5716 27.0422 14.5716 26.941 14.6222L25.0088 15.6432C24.3169 16.006 23.5069 15.9469 22.8741 15.4913C22.2497 15.0357 21.9376 14.2763 22.0726 13.5169L22.4438 11.3654C22.4607 11.2557 22.4269 11.146 22.351 11.07L20.7816 9.54286C20.2247 9.00286 20.0307 8.20973 20.2669 7.46723C20.5032 6.73317 21.136 6.20161 21.8954 6.09192L24.0638 5.77973C24.1735 5.76286 24.2663 5.69536 24.3169 5.59411L25.2872 3.63661C25.6332 2.94473 26.3251 2.50598 27.1013 2.50598C27.8776 2.50598 28.5694 2.93629 28.9154 3.63661L29.8857 5.59411C29.9363 5.69536 30.0291 5.76286 30.1388 5.77973L32.2988 6.09192C33.0666 6.20161 33.691 6.73317 33.9357 7.46723C34.1719 8.20129 33.9779 8.99442 33.421 9.54286L31.8516 11.07C31.7757 11.146 31.7335 11.2557 31.7588 11.3654L32.1301 13.5169C32.2651 14.2847 31.9529 15.0357 31.3285 15.4913C30.9741 15.7529 30.5607 15.8794 30.1388 15.8794H30.1304ZM27.0929 12.901C27.4135 12.901 27.7426 12.9769 28.0379 13.1288L29.9701 14.1497C30.1304 14.2341 30.2569 14.1666 30.3244 14.1244C30.3919 14.0822 30.4932 13.9725 30.4594 13.7954L30.0882 11.6438C29.9785 10.9857 30.1894 10.3191 30.6704 9.85504L32.2397 8.32786C32.3663 8.20129 32.3494 8.05786 32.3241 7.98192C32.2988 7.90598 32.2313 7.77942 32.0541 7.75411L29.8941 7.44192C29.236 7.34911 28.6622 6.93567 28.3754 6.33661L27.4051 4.37911C27.3207 4.21879 27.1857 4.19348 27.1013 4.19348C27.0254 4.19348 26.8819 4.21879 26.806 4.37911L25.8357 6.33661C25.5404 6.93567 24.9751 7.34911 24.3169 7.44192L22.1485 7.75411C21.9713 7.77942 21.9038 7.90598 21.8785 7.98192C21.8532 8.05786 21.8363 8.20129 21.9629 8.32786L23.5322 9.85504C24.0047 10.3191 24.2241 10.9857 24.1144 11.6438L23.7432 13.7954C23.7094 13.9725 23.8107 14.0738 23.8782 14.1244C23.9457 14.1666 24.0722 14.2341 24.2326 14.1497L26.1647 13.1288C26.4601 12.9769 26.7807 12.8925 27.1097 12.8925L27.0929 12.901Z" fill="#FFD362"/>
</svg>
