<svg width="52" height="52" viewBox="0 0 52 52" fill="none" xmlns="http://www.w3.org/2000/svg">
<g clip-path="url(#clip0_2442_728)">
<path d="M45.9171 27.7333H45.7152C45.0167 27.7333 44.3615 27.4629 43.8683 26.9715L38.5461 21.6658C38.0461 21.1683 37.3051 21.0218 36.6525 21.2914C36.0025 21.5618 35.583 22.1892 35.583 22.8921V26.8666C35.583 27.3442 35.1921 27.7333 34.7111 27.7333H25.1483C21.7943 27.7333 19.0652 30.4546 19.0652 33.8V39H12.9985C12.5201 39 12.1319 39.3882 12.1319 39.8666C12.1319 40.345 12.5201 40.7333 12.9985 40.7333H19.0652V44.2H1.73361C1.25521 44.2 0.866943 44.5882 0.866943 45.0666C0.866943 45.545 1.25521 45.9333 1.73361 45.9333H19.0669C19.0669 49.2786 21.7952 52 25.1501 52H45.918C49.272 52 52.0011 49.2786 52.0011 45.9333V33.8C52.0011 30.4546 49.272 27.7333 45.9171 27.7333ZM50.2669 45.9333C50.2669 48.3227 48.3161 50.2666 45.9171 50.2666H25.1501C22.752 50.2666 20.8003 48.3227 20.8003 45.9333V33.8C20.8003 31.4106 22.7511 29.4666 25.1501 29.4666H34.7129C36.1489 29.4666 37.3181 28.3001 37.3181 26.8666L37.3233 22.893L42.6455 28.1987C43.4653 29.0168 44.5556 29.4666 45.7161 29.4666H45.918C48.3169 29.4666 50.2678 31.4106 50.2678 33.8L50.2669 45.9333Z" fill="#FFD362"/>
<path d="M20.2288 12.2477C21.118 11.3143 21.6674 10.0551 21.6674 8.66667C21.6674 5.79887 19.3352 3.46667 16.4674 3.46667C13.5996 3.46667 11.2674 5.79887 11.2674 8.66667C11.2674 10.0551 11.8169 11.3143 12.7061 12.2477C9.91458 12.7911 7.80078 15.2525 7.80078 18.2C7.80078 19.6335 8.96731 20.8 10.4008 20.8H22.5341C23.9676 20.8 25.1341 19.6335 25.1341 18.2C25.1341 15.2525 23.0194 12.7911 20.2288 12.2477ZM16.4674 5.20001C18.3793 5.20001 19.9341 6.75481 19.9341 8.66667C19.9341 10.5785 18.3793 12.1333 16.4674 12.1333C14.5556 12.1333 13.0008 10.5785 13.0008 8.66667C13.0008 6.75481 14.5556 5.20001 16.4674 5.20001ZM22.5341 19.0667H10.4008C9.92325 19.0667 9.53411 18.6775 9.53411 18.2C9.53411 15.8106 11.478 13.8667 13.8674 13.8667H19.0674C21.4568 13.8667 23.4008 15.8106 23.4008 18.2C23.4008 18.6775 23.0116 19.0667 22.5341 19.0667Z" fill="#FFD362"/>
<path d="M39.2949 39.981C40.1841 39.0476 40.7336 37.7884 40.7336 36.4C40.7336 33.5322 38.4014 31.2 35.5336 31.2C32.6658 31.2 30.3336 33.5322 30.3336 36.4C30.3336 37.7884 30.8831 39.0476 31.7723 39.981C28.9807 40.5244 26.8669 42.9858 26.8669 45.9333C26.8669 47.3668 28.0335 48.5333 29.4669 48.5333H41.6003C43.0337 48.5333 44.2003 47.3668 44.2003 45.9333C44.2003 42.9858 42.0856 40.5244 39.2949 39.981ZM35.5336 32.9333C37.4455 32.9333 39.0003 34.4881 39.0003 36.4C39.0003 38.3118 37.4455 39.8666 35.5336 39.8666C33.6217 39.8666 32.0669 38.3118 32.0669 36.4C32.0669 34.4881 33.6217 32.9333 35.5336 32.9333ZM41.6003 46.8H29.4669C28.9894 46.8 28.6003 46.4108 28.6003 45.9333C28.6003 43.5439 30.5442 41.6 32.9336 41.6H38.1336C40.523 41.6 42.4669 43.5439 42.4669 45.9333C42.4669 46.4108 42.0787 46.8 41.6003 46.8Z" fill="#FFD362"/>
<path d="M51.1337 6.93333C51.1337 6.45493 50.7463 6.06667 50.267 6.06667H32.9337C32.9337 2.72133 30.2124 0 26.867 0H6.16237C2.81704 0 0.0957031 2.72133 0.0957031 6.06667V18.2C0.0957031 21.5453 2.81704 24.2667 6.16237 24.2667H6.3643C7.04897 24.2667 7.71804 24.544 8.2025 25.0276L13.5082 30.3333C13.8402 30.6661 14.2822 30.8421 14.732 30.8421C14.9556 30.8421 15.1818 30.7987 15.3967 30.7095C16.0467 30.4399 16.467 29.8116 16.467 29.1079V25.1333C16.467 24.6558 16.8562 24.2667 17.3337 24.2667H26.867C30.2124 24.2667 32.9337 21.5453 32.9337 18.2V13H39.0004C39.4788 13 39.867 12.6117 39.867 12.1333C39.867 11.6549 39.4788 11.2667 39.0004 11.2667H32.9337V7.8H50.267C50.7463 7.8 51.1337 7.41173 51.1337 6.93333ZM31.2004 18.2C31.2004 20.5894 29.2564 22.5333 26.867 22.5333H17.3337C15.9002 22.5333 14.7337 23.6999 14.7337 25.1333V29.1079L9.42797 23.8021C8.60984 22.984 7.5213 22.5333 6.3643 22.5333H6.16237C3.77297 22.5333 1.82904 20.5894 1.82904 18.2V6.06667C1.82904 3.67727 3.77297 1.73333 6.16237 1.73333H26.867C29.2564 1.73333 31.2004 3.67727 31.2004 6.06667V18.2Z" fill="#FFD362"/>
<path d="M36.4008 16.4667C35.9224 16.4667 35.5342 16.8549 35.5342 17.3333C35.5342 17.8117 35.9224 18.2 36.4008 18.2H47.6675C48.1468 18.2 48.5342 17.8117 48.5342 17.3333C48.5342 16.8549 48.1468 16.4667 47.6675 16.4667H36.4008Z" fill="#FFD362"/>
<path d="M4.33371 33.8C3.85531 33.8 3.46704 34.1883 3.46704 34.6667C3.46704 35.1451 3.85531 35.5334 4.33371 35.5334H15.6004C16.0788 35.5334 16.467 35.1451 16.467 34.6667C16.467 34.1883 16.0788 33.8 15.6004 33.8H4.33371Z" fill="#FFD362"/>
</g>
<defs>
<clipPath id="clip0_2442_728">
<rect width="52" height="52" fill="white"/>
</clipPath>
</defs>
</svg>
