<svg width="36" height="508" viewBox="0 0 36 508" fill="none" xmlns="http://www.w3.org/2000/svg">
<rect x="16" width="3" height="508" fill="white"/>
<circle cx="18" cy="250.255" r="17.5" fill="white" stroke="white"/>
<g clip-path="url(#clip0_2373_277)">
<path d="M8.60363 250.564L15.0036 246.064C15.1276 245.977 15.2788 245.979 15.4012 246.068C15.5244 246.158 15.5996 246.322 15.5996 246.5V255.5C15.5996 255.678 15.5244 255.842 15.4012 255.932C15.3388 255.977 15.2692 256 15.1996 256C15.1324 256 15.0644 255.979 15.0036 255.936L8.60363 251.436C8.47803 251.347 8.39963 251.181 8.39963 251C8.39963 250.819 8.47803 250.653 8.60363 250.564Z" fill="black"/>
</g>
<g clip-path="url(#clip1_2373_277)">
<path d="M26.3964 250.564L19.9964 246.064C19.8724 245.977 19.7212 245.979 19.5988 246.068C19.4756 246.158 19.4004 246.322 19.4004 246.5V255.5C19.4004 255.678 19.4756 255.842 19.5988 255.932C19.6612 255.977 19.7308 256 19.8004 256C19.8676 256 19.9356 255.979 19.9964 255.936L26.3964 251.436C26.522 251.347 26.6004 251.181 26.6004 251C26.6004 250.819 26.522 250.653 26.3964 250.564Z" fill="black"/>
</g>
<defs>
<clipPath id="clip0_2373_277">
<rect width="8" height="10" fill="white" transform="matrix(-1 0 0 1 16 246)"/>
</clipPath>
<clipPath id="clip1_2373_277">
<rect width="8" height="10" fill="white" transform="translate(19 246)"/>
</clipPath>
</defs>
</svg>
