<svg width="240" height="62" viewBox="0 0 240 62" fill="none" xmlns="http://www.w3.org/2000/svg">
<mask id="mask0_2444_953" style="mask-type:luminance" maskUnits="userSpaceOnUse" x="0" y="0" width="240" height="62">
<path d="M239.8 0H0V61.7H239.8V0Z" fill="white"/>
</mask>
<g mask="url(#mask0_2444_953)">
<path d="M237.5 11C237.1 10.9 236.6 10.8 236.2 10.5C233.9 9.1 231.3 8.1 228.7 7.4C223.9 6.1 219 5.1 214.1 4.5C208.8 3.9 203.6 3.3 198.3 2.8C194.9 2.5 191.5 2.4 188.1 2.2C184.9 2 181.7 1.9 178.6 1.8C172.8 1.8 166.9 1.6 161.1 2C159.7 2.1 158.3 2 156.9 2.2C152.3 2.5 147.6 2.8 143 3.2C138.1 3.6 133.3 4.1 128.4 4.6C127.5 4.6 126.8 5.1 126.3 5.8C122.7 11.1 117.8 15.3 113 19.4C106.7 24.8 100 29.7 93.2004 34.5C88.8004 37.6 89.7004 36.6 86.8004 41.6C86.6004 41.9 86.5004 42.3 86.3004 42.6C87.0004 42.9 87.3004 42.4 87.6004 42.2C93.6004 37.8 99.8004 33.7 106.2 29.7C109.2 27.8 112.3 25.9 115.5 24.4C118.1 23.1 120.6 21.8 123.4 21C123.8 21 124.1 20.7 124.5 20.5C125.1 20.3 125.7 20.1 126.3 20C127.1 19.9 127.9 20 128.4 20.6C128.9 21.4 128.4 22.1 127.8 22.7C126.1 24.7 124.2 26.3 122.2 27.9C115.9 33 109.5 37.9 102.9 42.6C99.8004 44.8 96.8004 47.1 93.7004 49.4C93.4004 49.6 93.1004 49.9 92.8004 50.1C92.8004 50.1 92.7004 50.4 92.8004 50.5C92.8004 50.6 93.0004 50.7 93.2004 50.7C93.6004 50.7 94.0004 50.7 94.4004 50.7C98.7004 50.5 103.1 50 107.4 49.5C112 49 116.5 48.7 121.1 48.3C124.7 48 128.4 47.5 132 47.2C133.5 47.1 134.9 47 136.4 46.8C140.6 46.3 144.8 46 148.9 45.6C151.9 45.3 154.9 44.9 157.9 44.5C163.4 43.8 168.9 43.2 174.3 42.5C174.9 42.5 175.5 42.5 176.2 42.5C176.6 42.5 177 42.7 177.1 43.1C177.1 43.5 176.8 43.8 176.4 43.9C175.5 44.1 174.6 44.3 173.7 44.4C170.3 44.8 166.9 45.1 163.5 45.7C161.1 46.1 158.6 46.7 156.1 46.8C155.3 46.8 154.4 47 153.6 47.4C153.6 48.2 154.3 48.2 154.6 48.5C155.3 49 155.4 49.4 155.2 49.8C154.9 50.4 154.4 50.5 153.6 50.2C152.7 49.8 151.7 49.5 150.8 49C150.1 48.6 149.3 48.5 148.6 48.6C143.5 49.3 138.4 49.2 133.2 49.5C132 49.5 130.7 49.8 129.6 48.9C129.4 48.7 129 48.7 128.7 48.7C127.3 48.7 125.9 48.9 124.5 49C119 49.5 113.5 49.9 108 50.4C104.3 50.7 100.6 51.2 96.9004 51.6C95.9004 51.7 94.9004 51.8 93.9004 51.7C92.6004 51.7 91.4004 52 90.2004 52.2C89.5004 52.3 88.9004 52.7 88.4004 53.1C85.9004 54.9 83.3004 56.7 80.8004 58.5C80.2004 58.9 79.8004 59.5 79.4004 60C79.1004 60.4 78.8004 60.7 78.4004 61C78.2004 61.2 77.8004 61.3 77.5004 61C77.2004 60.8 77.1004 60.5 77.1004 60.2C77.3004 58.8 77.8004 57.5 78.3004 56.2C79.7004 52.6 79.8004 52.9 76.0004 53C70.5004 53.2 65.0004 53.6 59.5004 53.9C55.4004 54.1 51.3004 54.3 47.2004 54.5C42.0004 54.7 36.8004 55 31.6004 55.1C27.1004 55.2 22.6004 55.3 18.1004 55.1C14.5004 55.1 10.8004 54.7 7.30042 53.7C5.50042 53.2 3.80042 52.5 2.30042 51.3C0.600425 49.9 -0.499575 47.7 1.00042 44.8C1.40042 44 2.00042 43.2 2.60042 42.5C4.90042 39.9 7.60042 37.9 10.4004 35.9C15.5004 32.3 21.2004 29.7 26.8004 27.1C32.4004 24.5 38.3004 22.3 44.2004 20.4C48.3004 19 52.5004 17.8 56.6004 16.5C61.2004 15.1 65.9004 13.9 70.6004 12.8C73.7004 12.1 76.8004 11.3 79.9004 10.6C83.1004 9.9 86.3004 9.3 89.5004 8.7C94.9004 7.7 100.4 6.8 105.8 5.9C107.5 5.6 108.9 5.1 109.9 3.6C110.2 3.1 110.7 2.8 111.2 2.8C112.3 2.8 113.3 2.2 114.2 1.7C117.1 0.9 120.4 0.1 123.9 0C124.3 0 124.7 0 125.1 0C126.8 0.2 127.4 0.8 127.6 2.5C127.6 2.7 127.6 3 127.6 3.2C127.6 3.5 127.9 3.7 128.3 3.7C131.2 3.4 134.2 3.2 137.1 2.9C139.9 2.6 142.7 2.3 145.5 2.1C150.8 1.7 156 1.4 161.3 1.2C166.7 0.9 172.2 1 177.6 1.1C184.3 1.1 191 1.3 197.6 2.1C201.2 2.5 204.7 2.7 208.3 3C211.1 3.3 213.8 3.7 216.6 4.1C220.2 4.6 223.8 5.5 227.3 6.3C230.3 7 233.1 8 235.8 9.5C236.5 9.9 237.1 10.3 237.5 11.1V11ZM106.2 8.6H106.3C105.8 9 105.3 9.3 104.8 9.7C101.7 12.4 99.0004 15.5 96.6004 18.8C93.1004 23.6 90.7004 28.9 88.5004 34.4C88.2004 35.1 87.8004 35.8 88.0004 36.8C88.9004 36.1 89.5004 35.4 89.9004 34.6C90.4004 33.7 91.1004 33 91.9004 32.4C91.9004 32.7 91.7004 33 91.7004 33.3C91.7004 33.6 91.1004 33.8 91.7004 34.3C92.8004 33.5 93.9004 32.6 95.1004 31.9C100.9 28 106.3 23.5 111.8 19.2C114.8 16.8 117.5 14.2 120.3 11.5C122.1 9.8 123.8 8 125.1 5.8C125.2 5.6 125.3 5.4 125.1 5.2C125.1 5.2 124.8 5.1 124.7 5.1C120.1 5.7 115.5 6.3 110.9 6.9C109.7 7 108.9 7.5 108.3 8.6C104.9 14.3 101.4 19.8 97.6004 25.3C95.9004 27.8 94.2004 30.3 92.2004 32.6C92.3004 31.5 92.7004 30.5 93.4004 29.6C94.9004 27.7 96.0004 25.6 97.4004 23.6C100.3 19.1 103.2 14.7 106.1 10.2C106.4 9.7 106.7 9.3 106.6 8.7L106.2 8.6ZM82.5004 49.7C82.5004 49.8 82.7004 50 82.8004 50.1C83.2004 50.6 82.8004 51.4 83.5004 51.8C84.1004 52.1 84.7004 51.8 85.3004 51.8C85.9004 51.8 86.5004 51.7 87.2004 51.7C88.8004 51.7 90.0004 51.1 91.2004 50.1C93.6004 48.2 96.0004 46.4 98.4004 44.6C101 42.7 103.6 40.9 106.1 39C112.2 34.4 118.3 29.9 124 24.9C124.9 24.1 125.8 23.4 126.4 22.4C126.5 22.2 126.6 21.9 126.6 21.8C126.5 21.4 126.1 21.5 125.8 21.5C125.5 21.5 125.2 21.5 124.9 21.6C123.6 21.8 122.4 22.5 121.2 23C116.6 25 112.3 27.4 108.1 30C103.6 32.8 99.3004 35.8 94.9004 38.7C92.0004 40.7 89.2004 42.7 86.3004 44.7C85.3004 45.4 84.5004 46.2 84.3004 47.4C84.1004 48.4 83.4004 49.2 82.5004 49.8V49.7ZM104.6 8.2C104 7.8 103.7 7.9 103.4 8C101.3 8.3 99.3004 8.7 97.2004 9C93.4004 9.7 89.6004 10.4 85.8004 11.2C83.4004 11.7 81.0004 12.3 78.5004 12.8C66.9004 15.2 55.5004 18.3 44.3004 22.1C36.0004 24.9 27.8004 28.2 20.0004 32.2C15.9004 34.3 12.0004 36.6 8.30042 39.4C6.60042 40.7 5.10042 42.1 3.60042 43.6C2.80042 44.5 2.10042 45.4 1.70042 46.5C1.00042 48.5 1.00042 50.2 3.20042 51.5C3.90042 51.9 4.50042 52.3 5.30042 52.6C9.10042 53.9 13.1004 54.6 17.2004 54.7C21.0004 54.7 24.8004 54.7 28.6004 54.5C30.4004 54.4 32.2004 54.5 34.0004 54.5C36.8004 54.3 39.6004 54.5 42.4004 54C44.4004 54.4 46.4004 54 48.4004 54C52.7004 54 56.9004 53.6 61.2004 53.3C63.7004 53.1 66.2004 53 68.6004 52.8C71.9004 52.6 75.3004 52.4 78.6004 52.2C79.2004 52.2 79.7004 52 80.1004 51.6C80.6004 51 81.1004 49.6 81.2004 48.4C80.2004 48.6 79.3004 49.2 78.5004 49.7C77.5004 50.2 76.4004 50.7 75.2004 50.9C74.5004 51 73.8004 50.9 73.2004 50.4C72.8004 50.2 72.7004 49.8 72.9004 49.4C73.0004 49 73.2004 48.7 73.5004 48.4C75.1004 46.5 76.8004 44.9 78.8004 43.5C80.8004 42.1 82.8004 40.7 84.8004 39.5C85.8004 38.8 86.4004 37.9 86.9004 36.9C87.6004 35.4 88.2004 33.9 88.6004 32.4C88.7004 31.8 89.0004 31.2 89.2004 30.7C90.1004 28.5 91.2004 26.3 92.4004 24.2C95.2004 19.1 98.7004 14.6 102.8 10.6C103.4 10 104 9.4 104.7 8.7L104.6 8.2ZM111.1 5.6C111.4 5.6 111.5 5.7 111.7 5.6C115.5 5.1 119.2 4.7 123 4.2C123.8 4.2 124.5 4 125.3 3.8C126 3.6 126.4 3.1 126.4 2.2C126.4 1.6 126.1 1.3 125.4 1.1C124.5 0.9 123.6 0.7 122.7 1C121.1 1.4 119.5 1.7 118 2.1C116.3 2.5 114.8 3.2 113.3 4C112.6 4.4 111.8 4.8 111.3 5.5L111.1 5.6ZM74.8004 48.7C74.9004 48.8 75.0004 49 75.1004 49C75.7004 49.2 76.3004 49 76.9004 48.7C78.2004 48 79.5004 47.2 80.8004 46.6C82.8004 45.6 84.0004 44 84.8004 42C84.9004 41.6 85.3004 41.1 84.9004 40.7C84.5004 40.3 84.1004 40.8 83.7004 41C82.2004 42 80.8004 43 79.3004 44C77.7004 45.1 76.3004 46.5 75.1004 48C75.0004 48.2 74.9004 48.4 74.8004 48.6V48.7ZM85.9004 52.8C85.1004 52.8 84.4004 53.1 83.6004 53.1C82.7004 53.1 82.1004 53.5 81.8004 54.3C81.6004 54.8 81.1004 55.4 81.5004 55.8C82.0004 56.4 82.4004 55.6 82.8004 55.3C83.9004 54.7 84.9004 54.1 86.0004 53.4C86.0004 53.4 86.2004 53.1 86.2004 53C86.2004 52.9 86.0004 52.8 85.9004 52.7V52.8Z" fill="white"/>
<path d="M137.1 34.8C136.6 34.8 136.3 35.2 136 35.5C133.5 37.8 131 40 128.4 42C127.1 43 125.7 43.8 124.3 44.7C123.6 45.1 122.9 45.4 122.1 45.5C120.4 45.8 119.4 45.2 118.9 43.6C118.7 43 119 42.2 118.4 41.9C117.6 41.6 117 42.4 116.4 42.8C115.2 43.6 114 44.5 112.5 44.9C111.5 45.2 110.5 45.1 109.6 44.4C109.4 44.3 109.3 44.1 109.2 43.9C109 43.6 109.2 43.3 109.3 43C109.5 42.7 109.9 42.6 110.1 42.8C111.3 44 112.6 43.5 113.7 42.8C115.3 41.8 116.9 40.6 118.5 39.5C119.5 38.8 120.2 37.7 120.9 36.6C122.8 33.3 125.3 30.6 127.9 27.9C131.4 24.4 135.1 21.2 138.9 18.2C142.2 15.7 145.7 13.6 149.4 11.8C150.2 11.4 151.1 11.1 152.1 11.2C152.7 11.2 153.2 12 152.9 12.6C152.6 13.3 152.1 13.9 151.6 14.5C148.7 17.6 145.5 20.5 142.2 23.3C136.2 28.3 129.9 32.8 123.6 37.3C123 37.8 122.4 38.3 121.8 38.7C120.6 39.6 120.1 40.9 120.2 42.4C120.2 44 121.2 44.7 122.7 44C124.8 43.1 126.7 41.8 128.4 40.4C134 35.8 139.4 31 144.3 25.6C146.6 23.1 148.7 20.4 150.9 17.8C152.1 16.4 153.3 15 154.5 13.6C154.8 13.3 155 13 155.4 12.8C155.6 12.8 155.9 12.8 156.1 12.8C156.4 12.9 156.5 13.2 156.4 13.6C156.3 14.3 155.9 14.9 155.4 15.4C153.9 17 152.5 18.6 151 20.2C148 23.5 144.9 26.9 142.2 30.5C140.9 32.2 139.5 34 138.3 35.8C137.7 36.8 137.3 37.9 136.8 39C136.7 39.3 136.7 39.6 137 39.8C137.3 40 137.6 39.9 137.9 39.8C138.7 39.2 139.5 38.6 140.3 37.9C144.2 34.7 147.8 31.1 151.3 27.5C154.8 23.9 158.3 20.2 161.9 16.6C163.3 15.2 164.6 13.9 166 12.5C166.1 12.4 166.3 12.3 166.4 12.3C166.6 12.3 166.9 12.3 167.1 12.3C167.4 12.4 167.5 12.7 167.5 13.1C167.5 13.8 167 14.2 166.6 14.7C164.4 17.5 162.2 20.3 160 23.2C157.4 26.7 154.7 30.1 152.9 34.1C152.5 35.1 152.1 36.1 152.2 37.2C152.4 38.4 152.6 38.6 153.8 38.7C156 38.7 158.1 38.3 160.3 38C163.8 37.5 167.3 36.8 170.8 36.1C175.4 35.2 179.9 34.2 184.5 33.2C191 31.8 197.3 30.2 203.7 28.4C212.6 25.9 221.5 23.3 230.2 20.2C232.1 19.5 234.1 19 235.8 17.9C236 17.8 236.2 17.7 236.4 17.5C238.2 16.5 239.2 15.1 238.9 12.9C239.6 13.3 239.9 13.9 239.9 14.6C239.9 15.3 239.7 15.8 239.3 16.3C238.6 17.2 237.8 17.9 236.8 18.4C234.6 19.6 232.3 20.5 229.9 21.3C223.2 23.6 216.5 25.7 209.7 27.6C205.4 28.8 201 30.1 196.7 31.3C194.6 31.9 192.5 32.3 190.4 32.8C185.1 34 179.8 35.2 174.5 36.2C169.2 37.3 163.8 38.3 158.5 39.2C156.5 39.5 154.5 39.8 152.5 39.6C151.8 39.6 151.1 39.5 150.5 39.1C150.1 38.9 149.6 38.7 149.6 38.1C149.6 37.7 150 37.4 150.3 37.2C150.6 37 150.7 36.8 150.8 36.4C151.4 33.2 153.2 30.5 155 27.9C156.6 25.6 158.2 23.3 159.9 21.1C160.2 20.7 160.6 20.3 160.7 19.7C160.9 19.5 161 19.4 161.2 19.2C161.5 18.9 161.9 18.6 162.2 18.4C161.6 18.4 161.3 18.8 161.2 19.4C160.9 19.4 160.8 19.6 160.7 19.9C159.9 20.1 159.5 20.8 158.9 21.4C155.3 25.1 151.8 28.8 148.1 32.4C145.3 35.2 142.3 37.8 139.3 40.4C138.7 40.9 138.1 41.4 137.3 41.6C136.2 42 135.3 41.4 135.2 40.2C135.2 39.6 135.4 39 135.6 38.4C136.1 37.2 136.9 36.1 137.1 34.8C137.4 34.8 137.5 34.6 137.5 34.3C137.7 34.2 137.9 34 138 33.9C137.8 34.1 137.7 34.3 137.5 34.5C137.3 34.5 137.1 34.7 137.1 35V34.8ZM123 36C123.5 36.2 123.8 35.8 124 35.6C127.6 33 131.1 30.4 134.7 27.8C138.8 24.8 142.8 21.6 146.6 18.2C148.1 16.9 149.4 15.3 150.8 13.9C151 13.6 151.5 13.3 151.2 13C150.9 12.6 150.5 13 150.1 13.1C149.7 13.3 149.2 13.5 148.8 13.7C145.1 15.6 141.6 17.7 138.4 20.3C134 23.9 129.8 27.6 126 31.9C125 33.1 124.1 34.3 123.1 35.5C123 35.7 122.9 35.9 122.9 36.1L123 36Z" fill="white"/>
<path d="M186.3 48.3999C186.9 48.3999 187.3 48.6999 187.5 49.0999C187.7 49.4999 187.5 49.9999 187 50.1999C186.9 50.1999 186.7 50.2999 186.6 50.3999C186.1 50.5999 185.7 50.3999 185.4 49.9999C185.1 49.4999 185.3 49.0999 185.7 48.7999C185.9 48.5999 186.2 48.4999 186.4 48.3999H186.3Z" fill="white"/>
<path d="M173.2 49.8C173.2 50.4 172.6 50.9 171.9 50.8C171.4 50.8 171 50.4 171 49.9C171 49.3 171.7 48.8 172.5 48.9C172.9 48.9 173.2 49.2 173.1 49.7L173.2 49.8Z" fill="white"/>
</g>
</svg>
