<svg width="96" height="17" viewBox="0 0 96 17" fill="none" xmlns="http://www.w3.org/2000/svg">
<g clip-path="url(#clip0_2373_581)">
<path d="M8.00007 12.673L3.29777 15.3051L4.34799 10.0196L0.391602 6.36087L5.74296 5.72638L8.00007 0.833008L10.2571 5.72638L15.6085 6.36087L11.6521 10.0196L12.7023 15.3051L8.00007 12.673Z" fill="#F3B130"/>
</g>
<g clip-path="url(#clip1_2373_581)">
<path d="M28.0001 12.673L23.2978 15.3051L24.348 10.0196L20.3916 6.36087L25.743 5.72638L28.0001 0.833008L30.2571 5.72638L35.6085 6.36087L31.6521 10.0196L32.7023 15.3051L28.0001 12.673Z" fill="#F3B130"/>
</g>
<g clip-path="url(#clip2_2373_581)">
<path d="M48.0001 12.673L43.2978 15.3051L44.348 10.0196L40.3916 6.36087L45.743 5.72638L48.0001 0.833008L50.2571 5.72638L55.6085 6.36087L51.6521 10.0196L52.7023 15.3051L48.0001 12.673Z" fill="#F3B130"/>
</g>
<g clip-path="url(#clip3_2373_581)">
<path d="M68.0001 12.673L63.2978 15.3051L64.348 10.0196L60.3916 6.36087L65.743 5.72638L68.0001 0.833008L70.2571 5.72638L75.6085 6.36087L71.6521 10.0196L72.7023 15.3051L68.0001 12.673Z" fill="#F3B130"/>
</g>
<g clip-path="url(#clip4_2373_581)">
<path d="M88.0001 12.673L83.2978 15.3051L84.348 10.0196L80.3916 6.36087L85.743 5.72638L88.0001 0.833008L90.2571 5.72638L95.6085 6.36087L91.6521 10.0196L92.7023 15.3051L88.0001 12.673Z" fill="#F3B130"/>
</g>
<defs>
<clipPath id="clip0_2373_581">
<rect width="16" height="16" fill="white" transform="translate(0 0.5)"/>
</clipPath>
<clipPath id="clip1_2373_581">
<rect width="16" height="16" fill="white" transform="translate(20 0.5)"/>
</clipPath>
<clipPath id="clip2_2373_581">
<rect width="16" height="16" fill="white" transform="translate(40 0.5)"/>
</clipPath>
<clipPath id="clip3_2373_581">
<rect width="16" height="16" fill="white" transform="translate(60 0.5)"/>
</clipPath>
<clipPath id="clip4_2373_581">
<rect width="16" height="16" fill="white" transform="translate(80 0.5)"/>
</clipPath>
</defs>
</svg>
