<svg width="62" height="62" viewBox="0 0 62 62" fill="none" xmlns="http://www.w3.org/2000/svg">
<g clip-path="url(#clip0_2447_1011)">
<path d="M55.106 43.222C54.8809 42.9966 54.5685 42.8672 54.25 42.8672C53.9315 42.8672 53.6191 42.9966 53.3939 43.222C53.1686 43.4473 53.0391 43.7583 53.0391 44.0781C53.0391 44.3966 53.1685 44.709 53.3939 44.9341C53.6191 45.1594 53.9315 45.2891 54.25 45.2891C54.5685 45.2891 54.8809 45.1595 55.106 44.9341C55.3314 44.709 55.4609 44.3966 55.4609 44.0781C55.4609 43.7596 55.3314 43.4472 55.106 43.222Z" fill="#FFD362"/>
<path d="M60.7891 59.5782H55.4609V48.3165C55.4609 47.6478 54.9187 47.1055 54.25 47.1055C53.5813 47.1055 53.0391 47.6478 53.0391 48.3165V59.5782H14.7734V48.1954C14.7734 47.5267 14.2312 46.9844 13.5625 46.9844C12.8938 46.9844 12.3516 47.5267 12.3516 48.1954V59.5782H8.96094V27.7308L31 10.5249L53.0391 27.7308V39.2344C53.0391 39.9031 53.5813 40.4454 54.25 40.4454C54.9187 40.4454 55.4609 39.9031 55.4609 39.2344V29.6215L55.6726 29.7868C55.8926 29.9587 56.1555 30.0433 56.4173 30.0433C56.7288 30.0433 57.039 29.9235 57.274 29.6886L61.6417 25.3208C61.8869 25.0754 62.0153 24.7366 61.9941 24.3903C61.9728 24.044 61.8041 23.7234 61.5305 23.5099L54.25 17.826V5.69147C54.25 5.02267 53.7077 4.48053 53.0391 4.48053H46.0207C45.352 4.48053 44.8098 5.02267 44.8098 5.69147V10.456L31.7451 0.256538C31.3073 -0.0853093 30.6927 -0.0853093 30.2548 0.256538L0.469359 23.5099C0.195809 23.7234 0.027125 24.044 0.0058125 24.3903C-0.0153789 24.7366 0.11298 25.0753 0.358195 25.3208L4.72593 29.6886C5.15823 30.1208 5.84532 30.1632 6.32739 29.7868L6.53906 29.6215V59.5782H1.21094C0.542258 59.5782 0 60.1204 0 60.7891C0 61.4578 0.542258 62.0001 1.21094 62.0001H60.7891C61.4577 62.0001 62 61.4578 62 60.7891C62 60.1204 61.4577 59.5782 60.7891 59.5782ZM47.2316 6.90241H51.8281V15.9353L47.2316 12.3468V6.90241ZM5.68123 27.2188L3.03897 24.5764L31 2.74719L58.961 24.5764L56.3188 27.2188L31.7451 8.03415C31.5262 7.86316 31.2631 7.77767 31 7.77767C30.7369 7.77767 30.4737 7.86316 30.2549 8.03415L5.68123 27.2188Z" fill="#FFD362"/>
<path d="M42.625 26.3984H19.375C18.7063 26.3984 18.1641 26.9406 18.1641 27.6094V50.8594C18.1641 51.5281 18.7063 52.0703 19.375 52.0703H42.625C43.2937 52.0703 43.8359 51.5281 43.8359 50.8594V27.6094C43.8359 26.9406 43.2937 26.3984 42.625 26.3984ZM29.7891 49.6484H20.5859V40.4453H29.7891V49.6484ZM29.7891 38.0234H20.5859V28.8203H29.7891V38.0234ZM41.4141 49.6484H32.2109V40.4453H41.4141V49.6484ZM41.4141 38.0234H32.2109V28.8203H41.4141V38.0234Z" fill="#FFD362"/>
<path d="M13.5625 42.2019C12.8938 42.2019 12.3516 42.744 12.3516 43.4128V43.4323C12.3516 44.101 12.8938 44.6433 13.5625 44.6433C14.2312 44.6433 14.7734 44.101 14.7734 43.4323V43.4128C14.7734 42.7442 14.2312 42.2019 13.5625 42.2019Z" fill="#FFD362"/>
</g>
<defs>
<clipPath id="clip0_2447_1011">
<rect width="62" height="62" fill="white"/>
</clipPath>
</defs>
</svg>
