<svg width="60" height="50" viewBox="0 0 60 50" fill="none" xmlns="http://www.w3.org/2000/svg">
<path fill-rule="evenodd" clip-rule="evenodd" d="M50.2839 19.1107C49.6057 19.1107 48.9136 19.0277 48.2493 18.8893V33.8374C49.5642 33.4914 51.0036 33.4914 52.3185 33.8374V18.8893C51.6541 19.0277 50.9759 19.1107 50.2839 19.1107ZM8.87212 47.9689V43.1246C8.87212 42.5571 9.34271 42.3218 9.82714 42.3218V31.3875C5.14894 32.2042 1.61953 35.5675 1.61953 39.5813V47.9689H5.03821V40.8131C5.03821 39.7751 6.62991 39.7751 6.62991 40.8131V47.9689H8.87212ZM11.4327 42.3218H12.1939V31.1938L11.4327 31.2076V42.3218ZM13.7856 42.3218H27.5988V31.1938H26.0348L21.4119 40.6055C21.1213 41.1869 20.2631 41.1869 19.9725 40.6055L15.3496 31.1938H13.7856V42.3218ZM29.1905 42.3218H29.9517V31.2076L29.1905 31.1938V42.3218ZM31.5434 42.3218C32.0417 42.3218 32.5123 42.5571 32.5123 43.1246V47.9689H34.7406V40.8131C34.7406 39.7751 36.3462 39.7751 36.3462 40.8131V47.9689H39.751V39.5813C39.751 35.5675 36.2354 32.2042 31.5434 31.3875V42.3218ZM30.9206 47.9689V43.9273H10.4638V47.9689H30.9206ZM30.6853 15.1522H29.9932V20.0934C29.9932 23.3737 28.277 26.2664 25.7026 27.9273L26.1455 29.5882C27.6957 29.5882 29.2597 29.519 30.8098 29.6713C36.7476 30.2803 41.3427 34.4879 41.3427 39.5813V48.7716C41.3427 49.2145 40.9967 49.5744 40.5538 49.5744H0.8306C0.387694 49.5744 0.027832 49.2145 0.027832 48.7716V39.5813C0.027832 33.699 5.89634 29.6298 12.0555 29.5882H15.2251L15.6818 27.9273C13.0936 26.2664 11.3912 23.3737 11.3912 20.0934V15.1522H10.6991C8.18008 15.1522 7.55724 11.692 9.79946 10.737C10.2008 4.93772 15.0451 0.439446 20.6922 0.439446C26.3254 0.439446 31.1697 4.93772 31.5849 10.737C33.8133 11.692 33.1905 15.1522 30.6853 15.1522ZM10.6299 12.1626C9.77178 12.2457 9.82714 13.5606 10.6991 13.5606H30.6853C31.6264 13.5606 31.5296 12.1488 30.6853 12.1488H10.6853L10.6299 12.1626ZM23.3635 10.5571V2.43253C21.6611 1.90657 19.7095 1.90657 18.0209 2.43253V10.5571H23.3635ZM24.9552 3.09689V10.5571H29.9655C29.6334 7.31834 27.6818 4.55017 24.9552 3.09689ZM16.4154 10.5571V3.09689C13.7026 4.55017 11.751 7.31834 11.4188 10.5571H16.4154ZM20.6922 29.3945C19.4327 29.3945 18.2285 29.1453 17.1213 28.6886L16.6922 30.308L20.6922 38.4464L24.6922 30.308L24.2493 28.6886C23.1559 29.1453 21.9517 29.3945 20.6922 29.3945ZM12.9829 15.1522V20.0934C12.9829 24.3979 16.5123 27.8028 20.6922 27.8028C24.8583 27.8028 28.3877 24.3979 28.3877 20.0934V15.1522H12.9829ZM50.2839 46.5433C49.8271 46.5433 46.879 44.7024 46.2839 44.3564C46.0348 44.2042 45.8825 43.9412 45.8825 43.6644V39.4844C45.8825 39.2076 46.0348 38.9446 46.2839 38.7924L49.8825 36.7163C50.1316 36.5779 50.4361 36.5779 50.6853 36.7163L54.2977 38.7924C54.5469 38.9446 54.6991 39.2076 54.6991 39.4844V43.6644C54.6991 43.9412 54.5469 44.2042 54.2977 44.3564C53.6887 44.7024 50.7406 46.5433 50.2839 46.5433ZM47.4742 43.1938L50.2839 44.827L53.0936 43.1938V39.955L50.2839 38.3356L47.4742 39.955V43.1938ZM50.2839 30.5294C49.841 30.5294 49.495 30.1695 49.495 29.7405V23.0692C49.495 22.045 51.0867 22.045 51.0867 23.0692V29.7405C51.0867 30.1695 50.7268 30.5294 50.2839 30.5294ZM50.2839 49.5744C45.8825 49.5744 42.2977 45.9758 42.2977 41.5744C42.2977 38.474 44.0694 35.7889 46.6576 34.4602V18.391C38.7545 15.1799 38.533 3.87197 46.5192 0.49481C47.0451 0.273356 47.6403 0.67474 47.6403 1.22837V8.61938H52.9413V1.22837C52.9413 0.6609 53.5365 0.273356 54.0486 0.49481C62.0486 3.85813 61.8133 15.1938 53.924 18.391V34.4602C56.5123 35.7889 58.2839 38.474 58.2839 41.5744C58.2839 45.9758 54.6991 49.5744 50.2839 49.5744ZM48.8444 35.346C46.0071 35.9965 43.8894 38.5433 43.8894 41.5744C43.8894 45.1038 46.7545 47.9689 50.2839 47.9689C53.8133 47.9689 56.6784 45.1038 56.6784 41.5744C56.6784 37.3945 52.7199 34.4464 48.8444 35.346ZM48.9828 17.3945C53.7303 18.1695 58.3808 14.4879 58.3808 9.42214C58.3808 6.58477 56.8998 3.99654 54.533 2.52941V9.42214C54.533 9.86505 54.1732 10.2249 53.7441 10.2249H46.8375C46.3946 10.2249 46.0348 9.86505 46.0348 9.42214V2.52941C39.7095 6.43253 41.6334 16.1765 48.9828 17.3945Z" fill="#FFD362"/>
</svg>
