<svg width="54" height="56" viewBox="0 0 54 56" fill="none" xmlns="http://www.w3.org/2000/svg">
<path d="M39.6425 55.1515H4.76977C2.39401 55.1515 0.527344 53.2848 0.527344 50.9091V5.0909C0.527344 2.71515 2.39401 0.84848 4.76977 0.84848H33.2789C33.788 0.84848 34.1273 1.18787 34.1273 1.69697C34.1273 2.20606 33.788 2.54545 33.2789 2.54545H4.76977C3.32734 2.54545 2.22431 3.64848 2.22431 5.0909V50.9091C2.22431 52.3515 3.32734 53.4545 4.76977 53.4545H39.6425C41.0849 53.4545 42.188 52.3515 42.188 50.9091V50.2303C42.188 49.7212 42.5273 49.3818 43.0364 49.3818C43.5455 49.3818 43.8849 49.7212 43.8849 50.2303V50.9091C43.8849 53.2848 42.0183 55.1515 39.6425 55.1515Z" fill="#FFD362"/>
<path d="M43.0365 31.903C42.5274 31.903 42.188 31.5636 42.188 31.0546V11.2849C42.188 10.7758 42.5274 10.4364 43.0365 10.4364C43.5456 10.4364 43.885 10.7758 43.885 11.2849V31.0546C43.885 31.5636 43.5456 31.903 43.0365 31.903Z" fill="#FFD362"/>
<path d="M43.0364 12.1333H36.503C34.297 12.1333 32.5151 10.3515 32.5151 8.14545V1.69697C32.5151 1.18787 32.8545 0.84848 33.3636 0.84848C33.6182 0.84848 33.8727 0.933329 34.0424 1.10303L43.6303 10.6909C43.8848 10.9454 43.9697 11.2848 43.8 11.6242C43.7151 11.9636 43.3757 12.1333 43.0364 12.1333ZM34.2121 3.64848V8.14545C34.2121 9.41818 35.2303 10.4364 36.503 10.4364H41L34.2121 3.64848Z" fill="#FFD362"/>
<path d="M7.82449 12.2182C7.56994 12.2182 7.40025 12.1333 7.23055 11.9636L5.70328 10.4363C5.36388 10.0969 5.36388 9.58785 5.70328 9.24846C6.04267 8.90906 6.55176 8.90906 6.89115 9.24846L7.82449 10.1818L10.7942 7.2121C11.1336 6.8727 11.6427 6.8727 11.9821 7.2121C12.3215 7.55149 12.3215 8.06058 11.9821 8.39997L8.41843 11.9636C8.24873 12.1333 8.07903 12.2182 7.82449 12.2182Z" fill="#FFD362"/>
<path d="M7.82449 21.3818C7.56994 21.3818 7.40025 21.297 7.23055 21.1273L5.70328 19.6C5.36388 19.2606 5.36388 18.7515 5.70328 18.4121C6.04267 18.0727 6.55176 18.0727 6.89115 18.4121L7.82449 19.3454L10.7942 16.4606C11.1336 16.1212 11.6427 16.1212 11.9821 16.4606C12.3215 16.8 12.3215 17.3091 11.9821 17.6485L8.41843 21.1273C8.24873 21.297 8.07903 21.3818 7.82449 21.3818Z" fill="#FFD362"/>
<path d="M7.82449 30.6303C7.56994 30.6303 7.40025 30.5454 7.23055 30.3757L5.70328 28.7636C5.36388 28.4242 5.36388 27.9151 5.70328 27.5757C6.04267 27.2364 6.55176 27.2364 6.89115 27.5757L7.82449 28.5939L10.7942 25.6242C11.1336 25.2848 11.6427 25.2848 11.9821 25.6242C12.3215 25.9636 12.3215 26.4727 11.9821 26.8121L8.41843 30.3757C8.24873 30.5454 8.07903 30.6303 7.82449 30.6303Z" fill="#FFD362"/>
<path d="M7.82449 39.7939C7.56994 39.7939 7.40025 39.7091 7.23055 39.5394L5.70328 38.0121C5.36388 37.6727 5.36388 37.1636 5.70328 36.8242C6.04267 36.4848 6.55176 36.4848 6.89115 36.8242L7.82449 37.7576L10.7942 34.8727C11.1336 34.5333 11.6427 34.5333 11.9821 34.8727C12.3215 35.2121 12.3215 35.7212 11.9821 36.0606L8.41843 39.5394C8.24873 39.7091 8.07903 39.7939 7.82449 39.7939Z" fill="#FFD362"/>
<path d="M7.82449 49.0424C7.56994 49.0424 7.40025 48.9576 7.23055 48.7879L5.70328 47.1757C5.36388 46.8363 5.36388 46.3273 5.70328 45.9879C6.04267 45.6485 6.55176 45.6485 6.89115 45.9879L7.82449 47.006L10.7942 44.0363C11.1336 43.697 11.6427 43.697 11.9821 44.0363C12.3215 44.3757 12.3215 44.8848 11.9821 45.2242L8.41843 48.7879C8.24873 48.9576 8.07903 49.0424 7.82449 49.0424Z" fill="#FFD362"/>
<path d="M27.6789 8.56968H15.0365C14.5274 8.56968 14.188 8.23029 14.188 7.7212C14.188 7.21211 14.5274 6.87271 15.0365 6.87271H27.6789C28.188 6.87271 28.5274 7.21211 28.5274 7.7212C28.5274 8.23029 28.188 8.56968 27.6789 8.56968Z" fill="#FFD362"/>
<path d="M29.2062 12.3879H15.0365C14.5274 12.3879 14.188 12.0485 14.188 11.5394C14.188 11.0303 14.5274 10.6909 15.0365 10.6909H29.2062C29.7153 10.6909 30.0547 11.0303 30.0547 11.5394C30.0547 12.0485 29.7153 12.3879 29.2062 12.3879Z" fill="#FFD362"/>
<path d="M27.6789 17.7333H15.0365C14.5274 17.7333 14.188 17.3939 14.188 16.8848C14.188 16.3757 14.5274 16.0363 15.0365 16.0363H27.6789C28.188 16.0363 28.5274 16.3757 28.5274 16.8848C28.5274 17.3939 28.188 17.7333 27.6789 17.7333Z" fill="#FFD362"/>
<path d="M38.1153 21.5515H15.0365C14.5274 21.5515 14.188 21.2121 14.188 20.703C14.188 20.1939 14.5274 19.8545 15.0365 19.8545H38.1153C38.6244 19.8545 38.9637 20.1939 38.9637 20.703C38.9637 21.2121 38.6244 21.5515 38.1153 21.5515Z" fill="#FFD362"/>
<path d="M27.6789 26.9818H15.0365C14.5274 26.9818 14.188 26.6424 14.188 26.1333C14.188 25.6242 14.5274 25.2848 15.0365 25.2848H27.6789C28.188 25.2848 28.5274 25.6242 28.5274 26.1333C28.5274 26.6424 28.188 26.9818 27.6789 26.9818Z" fill="#FFD362"/>
<path d="M35.0607 30.7151H15.0365C14.5274 30.7151 14.188 30.3757 14.188 29.8666C14.188 29.3576 14.5274 29.0182 15.0365 29.0182H35.0607C35.5698 29.0182 35.9092 29.3576 35.9092 29.8666C35.9092 30.3757 35.5698 30.7151 35.0607 30.7151Z" fill="#FFD362"/>
<path d="M27.6789 36.1454H15.0365C14.5274 36.1454 14.188 35.806 14.188 35.2969C14.188 34.7878 14.5274 34.4485 15.0365 34.4485H27.6789C28.188 34.4485 28.5274 34.7878 28.5274 35.2969C28.5274 35.806 28.188 36.1454 27.6789 36.1454Z" fill="#FFD362"/>
<path d="M29.2062 39.9636H15.0365C14.5274 39.9636 14.188 39.6242 14.188 39.1151C14.188 38.606 14.5274 38.2666 15.0365 38.2666H29.2062C29.7153 38.2666 30.0547 38.606 30.0547 39.1151C30.0547 39.6242 29.7153 39.9636 29.2062 39.9636Z" fill="#FFD362"/>
<path d="M27.6789 45.3091H15.0365C14.5274 45.3091 14.188 44.9697 14.188 44.4606C14.188 43.9515 14.5274 43.6121 15.0365 43.6121H27.6789C28.188 43.6121 28.5274 43.9515 28.5274 44.4606C28.5274 44.9697 28.188 45.3091 27.6789 45.3091Z" fill="#FFD362"/>
<path d="M31.7516 49.1273H15.0365C14.5274 49.1273 14.188 48.7879 14.188 48.2788C14.188 47.7697 14.5274 47.4303 15.0365 47.4303H31.7516C32.2607 47.4303 32.6001 47.7697 32.6001 48.2788C32.6001 48.7879 32.2607 49.1273 31.7516 49.1273Z" fill="#FFD362"/>
<path d="M43.0365 51.0788C37.2668 51.0788 32.6001 46.4121 32.6001 40.6424C32.6001 34.8727 37.2668 30.2061 43.0365 30.2061C48.8062 30.2061 53.4728 34.8727 53.4728 40.6424C53.4728 46.4121 48.8062 51.0788 43.0365 51.0788ZM43.0365 31.903C38.2001 31.903 34.2971 35.8061 34.2971 40.6424C34.2971 45.4788 38.2001 49.3818 43.0365 49.3818C47.8728 49.3818 51.7759 45.4788 51.7759 40.6424C51.7759 35.8061 47.8728 31.903 43.0365 31.903Z" fill="#FFD362"/>
<path d="M41.0848 44.5454C40.8303 44.5454 40.6606 44.4606 40.4909 44.2909L38.2848 42.0848C37.9454 41.7454 37.9454 41.2364 38.2848 40.897C38.6242 40.5576 39.1333 40.5576 39.4727 40.897L41.0848 42.5091L46.6848 36.9091C47.0242 36.5697 47.5333 36.5697 47.8727 36.9091C48.2121 37.2485 48.2121 37.7576 47.8727 38.097L41.6788 44.2909C41.5091 44.4606 41.3394 44.5454 41.0848 44.5454Z" fill="#FFD362"/>
</svg>
