<svg width="50" height="60" viewBox="0 0 50 60" fill="none" xmlns="http://www.w3.org/2000/svg">
<path d="M2.42528 52.6342C3.37063 52.3752 9.1979 50.7791 10.1448 50.5198C10.4484 51.3682 12.5373 57.2048 12.8409 58.0531C13.0947 58.7637 13.7203 59.2381 14.4733 59.2908C14.5196 59.2937 14.5652 59.2955 14.6109 59.2955C15.313 59.2955 15.9415 58.9163 16.2747 58.2812L21.964 47.34C22.1572 46.9683 22.0126 46.5098 21.6408 46.3166C21.269 46.1227 20.81 46.2677 20.6168 46.6398L14.9287 57.5787C14.8274 57.7729 14.65 57.7839 14.5789 57.7764C14.4929 57.7704 14.3382 57.732 14.27 57.5413L12.5863 52.8349L16.0678 46.144C16.2617 45.7719 16.117 45.3138 15.7452 45.1202C15.3727 44.927 14.915 45.0716 14.7218 45.4431L11.8891 50.8864L11.3379 49.3456C11.2038 48.9714 10.8036 48.7615 10.4212 48.8688L8.84013 49.3021L11.5934 44.0067C11.7867 43.635 11.6421 43.1766 11.2697 42.9833C10.8991 42.7891 10.4395 42.9341 10.2463 43.3065L6.84466 49.849L2.02274 51.1704C1.82528 51.2262 1.70552 51.1206 1.65102 51.053C1.60661 50.9985 1.51403 50.8505 1.61188 50.6613L7.70786 38.9368C7.9011 38.5651 7.75649 38.1067 7.38407 37.9134C7.01352 37.7199 6.55391 37.8646 6.36067 38.2366L0.26411 49.9624C-0.0851092 50.6368 -0.00506997 51.4216 0.472235 52.0098C0.948368 52.5968 1.69661 52.8349 2.42528 52.6342Z" fill="#FFD362"/>
<path d="M42.6166 37.9136C42.2442 38.1068 42.0996 38.5652 42.2928 38.937L48.3882 50.6603C48.4866 50.8506 48.3942 50.9986 48.3496 51.0531C48.295 51.1204 48.1741 51.2262 47.9749 51.1696L43.156 49.8491L39.7544 43.3066C39.5612 42.9343 39.1016 42.7893 38.731 42.9834C38.3586 43.1767 38.214 43.6351 38.4072 44.0068L41.1605 49.3022L39.5795 48.8689C39.197 48.7628 38.7968 48.9718 38.6628 49.3457L38.1116 50.8866L35.2789 45.4432C35.0855 45.0717 34.6278 44.927 34.2555 45.1204C33.8838 45.3139 33.7391 45.772 33.9329 46.1441L37.4145 52.835L35.7308 57.5419C35.6626 57.732 35.5079 57.7705 35.4219 57.7764C35.3531 57.7838 35.174 57.7725 35.0732 57.581L29.384 46.6398C29.1908 46.2677 28.7323 46.1236 28.36 46.3166C27.9883 46.5098 27.8436 46.9683 28.0368 47.34L33.7272 58.2836C34.0592 58.9165 34.6878 59.2954 35.3899 59.2954C35.4356 59.2954 35.4812 59.2936 35.5275 59.2907C36.2805 59.2379 36.9061 58.7636 37.1599 58.0535C37.462 57.2092 39.5537 51.3646 39.856 50.5197C40.7966 50.7772 46.6413 52.3781 47.5726 52.6331C48.3001 52.8366 49.052 52.5969 49.5287 52.0097C50.006 51.4215 50.086 50.6367 49.7362 49.9611L43.6402 38.2366C43.4461 37.8647 42.9866 37.72 42.6166 37.9136Z" fill="#FFD362"/>
<path d="M25.0007 37.3351C32.6828 37.3351 38.933 31.0853 38.933 23.4031C38.933 15.7208 32.6828 9.4711 25.0007 9.4711C17.3186 9.4711 11.0684 15.7209 11.0684 23.4032C11.0684 31.0854 17.3184 37.3351 25.0007 37.3351ZM25.0007 10.989C31.8462 10.989 37.415 16.5579 37.415 23.4032C37.415 30.2484 31.8461 35.8172 25.0007 35.8172C18.1553 35.8172 12.5863 30.2483 12.5863 23.4031C12.5863 16.5578 18.1552 10.989 25.0007 10.989Z" fill="#FFD362"/>
<path d="M19.8302 25.9383L19.0742 30.3506C18.9858 30.8621 19.1922 31.3694 19.612 31.6746C20.0338 31.981 20.5797 32.0182 21.0374 31.7778L25 29.6942L28.9626 31.7778C29.4227 32.0194 29.9688 31.9791 30.3881 31.6746C30.8078 31.3692 31.0142 30.8621 30.9264 30.3512L30.1699 25.9383L33.3753 22.8135C33.747 22.4512 33.8787 21.9196 33.7181 21.426C33.558 20.9326 33.1388 20.5796 32.6253 20.5051L28.1949 19.8612L26.2138 15.8467C25.9838 15.3812 25.5189 15.0921 25.0001 15.0921C24.4813 15.0921 24.0165 15.3812 23.7864 15.8467L21.8054 19.8612L17.375 20.5051C16.8615 20.5796 16.4423 20.9326 16.2822 21.426C16.1215 21.9196 16.2531 22.4512 16.625 22.8135L19.8302 25.9383ZM22.1095 21.3506C22.55 21.2867 22.9313 21.0097 23.1282 20.6104L25.0001 16.8174L26.8721 20.6101C27.069 21.0097 27.4502 21.2867 27.8914 21.3508L32.0776 21.9594L29.0483 24.9126C28.7293 25.2238 28.584 25.6718 28.6593 26.1097L29.3738 30.279L25.6294 28.3102C25.4326 28.2073 25.2167 28.1554 25.0004 28.1554C24.7845 28.1554 24.5681 28.2073 24.37 28.3108L20.6266 30.2789L21.3405 26.1106C21.4164 25.6718 21.2711 25.2238 20.9515 24.912L17.9228 21.9594L22.1095 21.3506Z" fill="#FFD362"/>
<path d="M5.26527 27.6853C5.77281 28.1709 5.96558 28.8911 5.76812 29.5649L5.02574 32.1045C4.4821 33.9635 5.59855 35.895 7.48046 36.3517L10.0497 36.9755C10.7334 37.1415 11.2616 37.6698 11.4277 38.3537L12.0515 40.9235C12.5087 42.8037 14.4405 43.9224 16.2987 43.3777L18.8389 42.635C19.513 42.4379 20.2335 42.6309 20.7184 43.1381L22.5501 45.0533C23.8814 46.4459 26.1098 46.4565 27.4513 45.0533L29.283 43.1385C29.768 42.6315 30.4866 42.4379 31.1625 42.635L33.7027 43.3777C35.5525 43.92 37.491 42.8118 37.9493 40.9232L38.5731 38.354C38.7392 37.6697 39.2675 37.1417 39.9517 36.9759L42.5209 36.3519C44.3997 35.8954 45.5201 33.9661 44.9757 32.1047L44.2327 29.5649C44.0352 28.8907 44.2286 28.1706 44.7361 27.6853L46.6513 25.8537C48.0493 24.5172 48.0489 22.2886 46.6513 20.9524L44.7361 19.1208C44.2286 18.6355 44.0352 17.9154 44.2333 17.2412L44.9757 14.7017C45.5185 12.8458 44.4054 10.9124 42.5209 10.4544L39.9517 9.83064C39.268 9.66458 38.7398 9.1363 38.5737 8.45239L37.9499 5.88259C37.4923 4.00126 35.5613 2.88458 33.7027 3.42845L31.1625 4.17106C30.4884 4.36735 29.7692 4.17552 29.283 3.66798L27.4513 1.75278C26.12 0.360244 23.8916 0.34958 22.5501 1.75278L20.7184 3.66763C20.2322 4.17552 19.5123 4.367 18.8389 4.17106L16.2987 3.42845C14.4455 2.88481 12.5096 3.99786 12.0521 5.88294L11.4283 8.45216C11.2622 9.13606 10.7339 9.66446 10.0503 9.8304L7.48046 10.4542C5.60171 10.9108 4.48128 12.84 5.02574 14.7014L5.76871 17.2412C5.96617 17.9154 5.77281 18.6355 5.26527 19.1208L3.35007 20.9524C1.95214 22.289 1.9525 24.5175 3.35007 25.8537L5.26527 27.6853ZM4.39949 22.0494L6.31468 20.2178C7.2332 19.3393 7.58242 18.0358 7.22605 16.8152L6.48308 14.2751C6.18355 13.2525 6.79503 12.1826 7.83859 11.9295L10.4084 11.3057C11.6465 11.0047 12.6028 10.0486 12.9034 8.81028L13.5272 6.24106C13.7784 5.20372 14.8445 4.5845 15.8728 4.88532L18.413 5.62794C19.6333 5.98606 20.9365 5.63567 21.8153 4.71692L23.6469 2.80173C24.3609 2.05583 25.6404 2.05583 26.3543 2.80173L28.186 4.71728C29.0648 5.63544 30.3686 5.98618 31.5883 5.62806L34.1284 4.88544C35.1644 4.58356 36.2239 5.2097 36.4746 6.24118L37.0984 8.81063C37.399 10.049 38.3555 11.0051 39.5935 11.306L42.1627 11.9298C43.2006 12.1817 43.8194 13.2468 43.5182 14.2758L42.7764 16.815C42.4189 18.0353 42.7675 19.3391 43.6866 20.2179L45.6018 22.0495C46.3738 22.7867 46.3748 24.0189 45.6018 24.7569L43.6866 26.5886C42.7681 27.467 42.4189 28.7706 42.7752 29.9911L43.5182 32.5313C43.8177 33.5538 43.2062 34.6238 42.1627 34.8769L39.5935 35.5009C38.3548 35.8013 37.399 36.7574 37.0977 37.9959L36.4739 40.5652C36.2234 41.6005 35.1586 42.2223 34.1283 41.9209L31.5882 41.1783C30.3685 40.8217 29.0646 41.1709 28.1859 42.0893L26.3542 44.0045C25.6403 44.7504 24.3607 44.7504 23.6468 44.0045L21.8152 42.089C20.9319 41.1659 19.6262 40.8231 18.4129 41.1782L15.8727 41.9208C14.8348 42.2233 13.7768 41.5945 13.5265 40.565L12.9027 37.9956C12.6021 36.7573 11.6457 35.8011 10.4077 35.5002L7.83847 34.8764C6.80253 34.625 6.18121 33.5616 6.48296 32.5304L7.22476 29.9912C7.5823 28.7713 7.23367 27.4674 6.31457 26.5883L4.39937 24.7567C3.62757 24.0197 3.62652 22.7875 4.39949 22.0494Z" fill="#FFD362"/>
</svg>
