<svg width="52" height="52" viewBox="0 0 52 52" fill="none" xmlns="http://www.w3.org/2000/svg">
<path d="M45.9174 27.7333H45.7155C45.0169 27.7333 44.3617 27.4629 43.8686 26.9715L38.5464 21.6658C38.0463 21.1683 37.3053 21.0219 36.6527 21.2914C36.0027 21.5618 35.5833 22.1893 35.5833 22.8921V26.8667C35.5833 27.3442 35.1924 27.7333 34.7114 27.7333H25.1486C21.7946 27.7333 19.0655 30.4547 19.0655 33.8V39H12.9988C12.5204 39 12.1321 39.3883 12.1321 39.8667C12.1321 40.3451 12.5204 40.7333 12.9988 40.7333H19.0655V44.2H1.73385C1.25545 44.2 0.867188 44.5883 0.867188 45.0667C0.867188 45.5451 1.25545 45.9333 1.73385 45.9333H19.0672C19.0672 49.2787 21.7955 52 25.1503 52H45.9183C49.2723 52 52.0014 49.2787 52.0014 45.9333V33.8C52.0014 30.4547 49.2723 27.7333 45.9174 27.7333ZM50.2672 45.9333C50.2672 48.3227 48.3163 50.2667 45.9174 50.2667H25.1503C22.7523 50.2667 20.8005 48.3227 20.8005 45.9333V33.8C20.8005 31.4106 22.7514 29.4667 25.1503 29.4667H34.7131C36.1492 29.4667 37.3183 28.3001 37.3183 26.8667L37.3235 22.893L42.6457 28.1987C43.4656 29.0169 44.5559 29.4667 45.7163 29.4667H45.9183C48.3172 29.4667 50.2681 31.4106 50.2681 33.8L50.2672 45.9333Z" fill="#FFD362"/>
<path d="M20.2288 12.2477C21.118 11.3143 21.6674 10.0551 21.6674 8.66667C21.6674 5.79887 19.3352 3.46667 16.4674 3.46667C13.5996 3.46667 11.2674 5.79887 11.2674 8.66667C11.2674 10.0551 11.8169 11.3143 12.7061 12.2477C9.91458 12.7911 7.80078 15.2525 7.80078 18.2C7.80078 19.6335 8.96731 20.8 10.4008 20.8H22.5341C23.9676 20.8 25.1341 19.6335 25.1341 18.2C25.1341 15.2525 23.0194 12.7911 20.2288 12.2477ZM16.4674 5.20001C18.3793 5.20001 19.9341 6.75481 19.9341 8.66667C19.9341 10.5785 18.3793 12.1333 16.4674 12.1333C14.5556 12.1333 13.0008 10.5785 13.0008 8.66667C13.0008 6.75481 14.5556 5.20001 16.4674 5.20001ZM22.5341 19.0667H10.4008C9.92325 19.0667 9.53411 18.6775 9.53411 18.2C9.53411 15.8106 11.478 13.8667 13.8674 13.8667H19.0674C21.4568 13.8667 23.4008 15.8106 23.4008 18.2C23.4008 18.6775 23.0116 19.0667 22.5341 19.0667Z" fill="#FFD362"/>
<path d="M39.2952 39.9811C40.1844 39.0477 40.7339 37.7884 40.7339 36.4C40.7339 33.5322 38.4017 31.2 35.5339 31.2C32.6661 31.2 30.3339 33.5322 30.3339 36.4C30.3339 37.7884 30.8833 39.0477 31.7725 39.9811C28.981 40.5245 26.8672 42.9858 26.8672 45.9333C26.8672 47.3668 28.0337 48.5333 29.4672 48.5333H41.6005C43.034 48.5333 44.2005 47.3668 44.2005 45.9333C44.2005 42.9858 42.0859 40.5245 39.2952 39.9811ZM35.5339 32.9333C37.4457 32.9333 39.0005 34.4881 39.0005 36.4C39.0005 38.3119 37.4457 39.8667 35.5339 39.8667C33.622 39.8667 32.0672 38.3119 32.0672 36.4C32.0672 34.4881 33.622 32.9333 35.5339 32.9333ZM41.6005 46.8H29.4672C28.9897 46.8 28.6005 46.4109 28.6005 45.9333C28.6005 43.5439 30.5445 41.6 32.9339 41.6H38.1339C40.5233 41.6 42.4672 43.5439 42.4672 45.9333C42.4672 46.4109 42.0789 46.8 41.6005 46.8Z" fill="#FFD362"/>
<path d="M51.1337 6.93333C51.1337 6.45493 50.7463 6.06667 50.267 6.06667H32.9337C32.9337 2.72133 30.2124 0 26.867 0H6.16237C2.81704 0 0.0957031 2.72133 0.0957031 6.06667V18.2C0.0957031 21.5453 2.81704 24.2667 6.16237 24.2667H6.3643C7.04897 24.2667 7.71804 24.544 8.2025 25.0276L13.5082 30.3333C13.8402 30.6661 14.2822 30.8421 14.732 30.8421C14.9556 30.8421 15.1818 30.7987 15.3967 30.7095C16.0467 30.4399 16.467 29.8116 16.467 29.1079V25.1333C16.467 24.6558 16.8562 24.2667 17.3337 24.2667H26.867C30.2124 24.2667 32.9337 21.5453 32.9337 18.2V13H39.0004C39.4788 13 39.867 12.6117 39.867 12.1333C39.867 11.6549 39.4788 11.2667 39.0004 11.2667H32.9337V7.8H50.267C50.7463 7.8 51.1337 7.41173 51.1337 6.93333ZM31.2004 18.2C31.2004 20.5894 29.2564 22.5333 26.867 22.5333H17.3337C15.9002 22.5333 14.7337 23.6999 14.7337 25.1333V29.1079L9.42797 23.8021C8.60984 22.984 7.5213 22.5333 6.3643 22.5333H6.16237C3.77297 22.5333 1.82904 20.5894 1.82904 18.2V6.06667C1.82904 3.67727 3.77297 1.73333 6.16237 1.73333H26.867C29.2564 1.73333 31.2004 3.67727 31.2004 6.06667V18.2Z" fill="#FFD362"/>
<path d="M36.4008 16.4667C35.9224 16.4667 35.5342 16.8549 35.5342 17.3333C35.5342 17.8117 35.9224 18.2 36.4008 18.2H47.6675C48.1468 18.2 48.5342 17.8117 48.5342 17.3333C48.5342 16.8549 48.1468 16.4667 47.6675 16.4667H36.4008Z" fill="#FFD362"/>
<path d="M4.33346 33.8C3.85506 33.8 3.4668 34.1883 3.4668 34.6667C3.4668 35.1451 3.85506 35.5333 4.33346 35.5333H15.6001C16.0785 35.5333 16.4668 35.1451 16.4668 34.6667C16.4668 34.1883 16.0785 33.8 15.6001 33.8H4.33346Z" fill="#FFD362"/>
</svg>
