<svg width="54" height="54" viewBox="0 0 54 54" fill="none" xmlns="http://www.w3.org/2000/svg">
<path d="M27.0586 39.6225C23.8017 39.6225 21.1523 36.9731 21.1523 33.7162C21.1523 30.4594 23.8017 27.81 27.0586 27.81C30.3155 27.81 32.9648 30.4594 32.9648 33.7162C32.9648 36.9731 30.3155 39.6225 27.0586 39.6225ZM27.0586 29.4975C24.7298 29.4975 22.8398 31.3875 22.8398 33.7162C22.8398 36.045 24.7298 37.935 27.0586 37.935C29.3873 37.935 31.2773 36.045 31.2773 33.7162C31.2773 31.3875 29.3873 29.4975 27.0586 29.4975Z" fill="#FFD362"/>
<path d="M36.3398 51.5025H17.7773C17.3133 51.5025 16.9336 51.1228 16.9336 50.6587V48.0347C16.9336 43.8497 20.3423 40.4409 24.5273 40.4409H29.5898C33.7748 40.4409 37.1836 43.8497 37.1836 48.0347V50.6587C37.1836 51.1228 36.8039 51.5025 36.3398 51.5025ZM18.6211 49.815H35.4961V48.0347C35.4961 44.7778 32.8467 42.1284 29.5898 42.1284H24.5273C21.2705 42.1284 18.6211 44.7778 18.6211 48.0347V49.815Z" fill="#FFD362"/>
<path d="M11.0273 36.5681C7.77047 36.5681 5.12109 33.9187 5.12109 30.6619C5.12109 27.405 7.77047 24.7556 11.0273 24.7556C14.2842 24.7556 16.9336 27.405 16.9336 30.6619C16.9336 33.9187 14.2842 36.5681 11.0273 36.5681ZM11.0273 26.4431C8.69859 26.4431 6.80859 28.3331 6.80859 30.6619C6.80859 32.9906 8.69859 34.8806 11.0273 34.8806C13.3561 34.8806 15.2461 32.9906 15.2461 30.6619C15.2461 28.3331 13.3561 26.4431 11.0273 26.4431Z" fill="#FFD362"/>
<path d="M14.6133 48.4397H1.74609C1.28203 48.4397 0.902344 48.06 0.902344 47.5959V44.9719C0.902344 40.7869 4.31109 37.3781 8.49609 37.3781H13.5586C15.7945 37.3781 17.9123 38.3569 19.3552 40.0697C19.6589 40.4241 19.6083 40.9556 19.2539 41.2594C18.8995 41.5631 18.368 41.5125 18.0642 41.1581C16.942 39.825 15.2967 39.0656 13.5502 39.0656H8.48766C5.23078 39.0656 2.58141 41.715 2.58141 44.9719V46.7522H14.6048C15.0689 46.7522 15.4486 47.1319 15.4486 47.5959C15.4486 48.06 15.0689 48.4397 14.6048 48.4397H14.6133Z" fill="#FFD362"/>
<path d="M43.0898 36.5681C39.833 36.5681 37.1836 33.9187 37.1836 30.6619C37.1836 27.405 39.833 24.7556 43.0898 24.7556C46.3467 24.7556 48.9961 27.405 48.9961 30.6619C48.9961 33.9187 46.3467 36.5681 43.0898 36.5681ZM43.0898 26.4431C40.7611 26.4431 38.8711 28.3331 38.8711 30.6619C38.8711 32.9906 40.7611 34.8806 43.0898 34.8806C45.4186 34.8806 47.3086 32.9906 47.3086 30.6619C47.3086 28.3331 45.4186 26.4431 43.0898 26.4431Z" fill="#FFD362"/>
<path d="M52.3711 48.4397H39.5039C39.0398 48.4397 38.6602 48.06 38.6602 47.5959C38.6602 47.1319 39.0398 46.7522 39.5039 46.7522H51.5273V44.9719C51.5273 41.715 48.878 39.0656 45.6211 39.0656H40.5586C38.8205 39.0656 37.1752 39.825 36.0445 41.1581C35.7408 41.5125 35.2092 41.5547 34.8548 41.2594C34.5005 40.9556 34.4583 40.4241 34.7536 40.0697C36.2048 38.3569 38.3142 37.3781 40.5502 37.3781H45.6127C49.7977 37.3781 53.2064 40.7869 53.2064 44.9719V47.5959C53.2064 48.06 52.8267 48.4397 52.3627 48.4397H52.3711Z" fill="#FFD362"/>
<path d="M16.5036 24.9834C16.318 24.9834 16.1239 24.9159 15.972 24.7894C15.6092 24.4941 15.5586 23.9625 15.8539 23.5997C18.6383 20.2247 22.7305 18.2925 27.1011 18.2925C31.4717 18.2925 35.5639 20.2247 38.3483 23.5912C38.6436 23.9541 38.593 24.4856 38.2386 24.7809C37.8758 25.0762 37.3526 25.0256 37.0489 24.6712C34.5936 21.6928 30.9655 19.98 27.1095 19.98C23.2536 19.98 19.6255 21.6928 17.1617 24.6712C16.993 24.8737 16.7567 24.975 16.512 24.975L16.5036 24.9834Z" fill="#FFD362"/>
<path d="M45.9426 22.4438C45.622 22.4438 45.3014 22.3678 44.9976 22.2075L43.0654 21.1866C42.9726 21.1359 42.8545 21.1359 42.7533 21.1866L40.8211 22.2075C40.1292 22.5703 39.3192 22.5113 38.6948 22.0556C38.0704 21.6 37.7583 20.8406 37.8933 20.0813L38.2645 17.9297C38.2814 17.82 38.2476 17.7103 38.1633 17.6344L36.5939 16.1072C36.037 15.5672 35.8429 14.7741 36.0792 14.0316C36.3154 13.2891 36.9483 12.7659 37.7161 12.6563L39.8761 12.3441C39.9858 12.3272 40.0786 12.2597 40.1292 12.1584L41.0995 10.2009C41.4454 9.50906 42.1373 9.07031 42.9136 9.07031C43.6898 9.07031 44.3817 9.50063 44.7276 10.2009L45.6979 12.1584C45.7486 12.2597 45.8414 12.3272 45.9511 12.3441L48.1111 12.6563C48.8789 12.7659 49.5033 13.2975 49.7395 14.0316C49.9842 14.7656 49.7817 15.5672 49.2248 16.1072L47.6554 17.6344C47.5795 17.7103 47.5373 17.82 47.5626 17.9297L47.9339 20.0897C48.0689 20.8575 47.7567 21.6084 47.1323 22.0641C46.7779 22.3172 46.3645 22.4522 45.9426 22.4522V22.4438ZM42.9051 10.7494C42.8292 10.7494 42.6858 10.7747 42.6014 10.935L41.6311 12.8925C41.3358 13.4916 40.7704 13.905 40.1123 13.9978L37.9439 14.31C37.7667 14.3353 37.6992 14.4619 37.6739 14.5378C37.6486 14.6137 37.6317 14.7572 37.7583 14.8837L39.3276 16.4109C39.8001 16.875 40.0195 17.5416 39.9098 18.1997L39.5386 20.3597C39.5048 20.5369 39.6061 20.6381 39.6736 20.6888C39.7411 20.7309 39.8676 20.7984 40.0279 20.7141L41.9601 19.6931C42.5508 19.3809 43.2511 19.3809 43.8417 19.6931L45.7739 20.7141C45.9342 20.7984 46.0608 20.7309 46.1283 20.6888C46.1958 20.6466 46.297 20.5369 46.2633 20.3597L45.892 18.2081C45.7823 17.55 45.9933 16.8834 46.4742 16.4194L48.0436 14.8922C48.1701 14.7656 48.1533 14.6222 48.1279 14.5463C48.1026 14.4703 48.0351 14.3438 47.8579 14.3184L45.6979 14.0063C45.0398 13.9134 44.4661 13.5 44.1708 12.9009L43.2004 10.9434C43.1161 10.7831 42.9811 10.7578 42.8967 10.7578L42.9051 10.7494Z" fill="#FFD362"/>
<path d="M13.8801 22.4438C13.5595 22.4438 13.2389 22.3678 12.9351 22.2075L11.0029 21.1866C10.9017 21.1359 10.792 21.1359 10.6908 21.1866L8.75857 22.2075C8.06669 22.5703 7.25669 22.5113 6.63232 22.0556C6.00794 21.6 5.69575 20.8406 5.83075 20.0813L6.202 17.9297C6.21888 17.82 6.18513 17.7103 6.10075 17.6344L4.53138 16.1072C3.9745 15.5672 3.78044 14.7741 4.01669 14.0316C4.25294 13.2891 4.88575 12.7659 5.65357 12.6563L7.81357 12.3441C7.92325 12.3272 8.01607 12.2597 8.06669 12.1584L9.037 10.2009C9.38294 9.50906 10.0748 9.07031 10.8511 9.07031C11.6273 9.07031 12.3192 9.50063 12.6651 10.2009L13.6354 12.1584C13.6861 12.2597 13.7789 12.3272 13.8886 12.3441L16.0486 12.6563C16.8164 12.7659 17.4408 13.2975 17.677 14.0316C17.9217 14.7656 17.7192 15.5672 17.1623 16.1072L15.5929 17.6344C15.517 17.7103 15.4748 17.82 15.5001 17.9297L15.8714 20.0897C16.0064 20.8575 15.6942 21.6084 15.0698 22.0641C14.7154 22.3172 14.302 22.4522 13.8801 22.4522V22.4438ZM10.8426 10.7494C10.7667 10.7494 10.6233 10.7747 10.5389 10.935L9.56857 12.8925C9.27325 13.4916 8.70794 13.905 8.04982 13.9978L5.88138 14.31C5.70419 14.3353 5.63669 14.4619 5.61138 14.5378C5.58607 14.6137 5.56919 14.7572 5.69575 14.8837L7.26513 16.4109C7.73763 16.875 7.957 17.5416 7.84732 18.1997L7.47607 20.3597C7.44232 20.5369 7.54357 20.6381 7.61107 20.6888C7.67857 20.7309 7.80513 20.7984 7.96544 20.7141L9.89763 19.6931C10.4883 19.3809 11.1886 19.3809 11.7792 19.6931L13.7114 20.7141C13.8717 20.7984 13.9983 20.7309 14.0658 20.6888C14.1333 20.6466 14.2345 20.5369 14.2008 20.3597L13.8295 18.2081C13.7198 17.55 13.9308 16.8834 14.4117 16.4194L15.9811 14.8922C16.1076 14.7656 16.0908 14.6222 16.0654 14.5463C16.0401 14.4703 15.9726 14.3438 15.7954 14.3184L13.6354 14.0063C12.9773 13.9134 12.4036 13.5 12.1083 12.9009L11.1379 10.9434C11.0536 10.7831 10.9186 10.7578 10.8342 10.7578L10.8426 10.7494Z" fill="#FFD362"/>
<path d="M30.1301 15.8794C29.8095 15.8794 29.4889 15.8035 29.1851 15.6431L27.2529 14.6222C27.1601 14.5716 27.042 14.5716 26.9408 14.6222L25.0086 15.6431C24.3167 16.006 23.5067 15.9469 22.8739 15.4913C22.2495 15.0356 21.9373 14.2763 22.0723 13.5169L22.4436 11.3653C22.4604 11.2556 22.4267 11.146 22.3508 11.07L20.7814 9.54283C20.2245 9.00283 20.0304 8.2097 20.2667 7.4672C20.5029 6.73314 21.1358 6.20158 21.8951 6.09189L24.0636 5.7797C24.1733 5.76283 24.2661 5.69533 24.3167 5.59408L25.287 3.63658C25.6329 2.9447 26.3248 2.50595 27.1011 2.50595C27.8773 2.50595 28.5692 2.93626 28.9151 3.63658L29.8854 5.59408C29.9361 5.69533 30.0289 5.76283 30.1386 5.7797L32.2986 6.09189C33.0664 6.20158 33.6908 6.73314 33.9354 7.4672C34.1717 8.20126 33.9776 8.99439 33.4208 9.54283L31.8514 11.07C31.7754 11.146 31.7333 11.2556 31.7586 11.3653L32.1298 13.5169C32.2648 14.2847 31.9526 15.0356 31.3283 15.4913C30.9739 15.7528 30.5604 15.8794 30.1386 15.8794H30.1301ZM27.0926 12.901C27.4133 12.901 27.7423 12.9769 28.0376 13.1288L29.9698 14.1497C30.1301 14.2341 30.2567 14.1666 30.3242 14.1244C30.3917 14.0822 30.4929 13.9725 30.4592 13.7953L30.0879 11.6438C29.9783 10.9856 30.1892 10.3191 30.6701 9.85501L32.2395 8.32783C32.3661 8.20126 32.3492 8.05783 32.3239 7.98189C32.2986 7.90595 32.2311 7.77939 32.0539 7.75408L29.8939 7.44189C29.2358 7.34908 28.662 6.93564 28.3751 6.33658L27.4048 4.37908C27.3204 4.21876 27.1854 4.19345 27.1011 4.19345C27.0251 4.19345 26.8817 4.21876 26.8058 4.37908L25.8354 6.33658C25.5401 6.93564 24.9748 7.34908 24.3167 7.44189L22.1483 7.75408C21.9711 7.77939 21.9036 7.90595 21.8783 7.98189C21.8529 8.05783 21.8361 8.20126 21.9626 8.32783L23.532 9.85501C24.0045 10.3191 24.2239 10.9856 24.1142 11.6438L23.7429 13.7953C23.7092 13.9725 23.8104 14.0738 23.8779 14.1244C23.9454 14.1666 24.072 14.2341 24.2323 14.1497L26.1645 13.1288C26.4598 12.9769 26.7804 12.8925 27.1095 12.8925L27.0926 12.901Z" fill="#FFD362"/>
</svg>
