<svg width="56" height="58" viewBox="0 0 56 58" fill="none" xmlns="http://www.w3.org/2000/svg">
<path d="M36.9529 44.7617C36.7303 44.375 36.8592 43.8711 37.2459 43.6484C37.6326 43.4141 38.1365 43.5547 38.3709 43.9414L40.6678 47.9258L48.7889 39.8047C49.1053 39.4883 49.6209 39.4883 49.949 39.8047C50.2654 40.1328 50.2654 40.6484 49.949 40.9648L41.0779 49.8359C40.7029 50.2109 40.0584 50.1406 39.7889 49.6719L36.9529 44.7617ZM43.5154 32.5391C45.9412 32.5391 48.2029 33.2305 50.1131 34.4375C52.0467 27.2305 50.617 19.4492 46.1521 13.4023C45.8826 13.0391 45.9646 12.5234 46.3162 12.2539C46.6795 11.9844 47.1951 12.0664 47.4646 12.418C52.3631 19.0391 53.8396 27.6055 51.5193 35.457C57.0623 40.1445 57.4256 48.5703 52.281 53.7148C47.1951 58.8008 38.8748 58.5078 34.1521 53.0937C30.8006 54.1367 27.2732 54.4883 23.7928 54.1601C20.6287 53.8555 17.5115 52.9766 14.5935 51.5234L16.0701 54.207C16.281 54.6055 16.1404 55.0976 15.742 55.3203C15.3435 55.5312 14.8514 55.3906 14.6287 54.9922L11.7576 49.7656C11.4646 49.2266 11.8396 48.5117 12.5428 48.5586L18.449 48.6758C18.906 48.6875 19.2576 49.0625 19.2576 49.5078C19.2459 49.9648 18.8709 50.3164 18.4256 50.3047L15.7303 50.2461C18.3553 51.5 21.1326 52.25 23.9568 52.5312C27.0271 52.8242 30.1326 52.543 33.1092 51.6992C31.2576 48.8516 30.6365 45.3359 31.4685 41.9609C30.9178 42.1601 30.3553 42.3359 29.7928 42.4648V45.2305C29.7928 45.6875 29.4295 46.0508 28.9725 46.0508H23.7107C23.2537 46.0508 22.8904 45.6875 22.8904 45.2305V42.4766C21.367 42.1133 19.9021 41.5039 18.5662 40.6836L16.6092 42.6406C16.2928 42.9687 15.7654 42.9687 15.449 42.6406L11.7107 38.9141C11.3943 38.5976 11.3943 38.0703 11.7107 37.7539L13.6678 35.7969C12.8475 34.4609 12.2381 33.0078 11.8748 31.4726H9.12089C8.66386 31.4726 8.30058 31.1094 8.30058 30.6523V25.3906C8.30058 24.9336 8.66386 24.5703 9.12089 24.5703H11.8865C12.2498 23.0351 12.8592 21.582 13.6795 20.2461L11.7107 18.2891C11.3943 17.9726 11.3943 17.4453 11.7107 17.1289L15.4373 13.4023C15.7537 13.0859 16.281 13.0859 16.5975 13.4023L18.5545 15.3594C19.8904 14.5391 21.3435 13.9297 22.8787 13.5664V10.8008C22.8787 10.3437 23.242 9.98046 23.699 9.98046H28.9607C29.4178 9.98046 29.781 10.3437 29.781 10.8008V13.5664C31.3162 13.9297 32.7693 14.5391 34.1053 15.3594L36.0623 13.4023C36.3787 13.0859 36.906 13.0859 37.2225 13.4023L40.949 17.1289C41.2654 17.4453 41.2654 17.9609 40.949 18.2891L38.992 20.2461C39.8123 21.5703 40.4217 23.0351 40.785 24.5703H43.5506C44.0076 24.5703 44.3709 24.9336 44.3709 25.3906V30.6523C44.3709 31.1211 43.9959 31.4844 43.4803 31.4609H40.785L40.3514 32.9258C41.3592 32.6797 42.4256 32.5391 43.5154 32.5391ZM32.1834 39.8867C32.8045 38.4922 33.6717 37.2383 34.7381 36.1719C35.7576 35.1523 36.9529 34.3086 38.2771 33.6992C38.4881 33.2422 38.6873 32.7734 38.8514 32.2812C39.0506 31.707 39.2029 31.1211 39.3201 30.5117C39.3904 30.1367 39.7303 29.8437 40.1287 29.8437H42.742V26.2109H40.1287C39.742 26.2109 39.4021 25.9414 39.3201 25.543C39.156 24.6523 38.8865 23.7851 38.5467 22.9648C38.2068 22.1445 37.785 21.3711 37.2928 20.6445C37.0467 20.3164 37.0701 19.8594 37.3631 19.5664L39.2029 17.7266L36.6365 15.1601L34.7967 17C34.5271 17.2695 34.0935 17.3164 33.7537 17.0937C33.0154 16.5898 32.2185 16.1562 31.3865 15.8164C30.5779 15.4766 29.7342 15.2305 28.867 15.0547C28.4568 15.0078 28.1404 14.6562 28.1404 14.2461V11.6328H24.5076V14.1992C24.531 14.6094 24.2498 14.9726 23.8396 15.0547C22.9373 15.2187 22.0818 15.4883 21.2615 15.8281C20.4412 16.168 19.6678 16.5898 18.9295 17.082C18.6131 17.3281 18.1443 17.3047 17.8514 17.0117L16.0115 15.1719L13.4451 17.7383L15.285 19.5781C15.5545 19.8476 15.6014 20.2812 15.3787 20.6211C14.8748 21.3594 14.4412 22.1562 14.1014 22.9883C13.7732 23.7969 13.5154 24.6406 13.3396 25.5078C13.2928 25.918 12.9529 26.2344 12.531 26.2344H9.91777V29.8555H12.531C12.9178 29.8555 13.2576 30.1367 13.3396 30.5234C13.5037 31.4258 13.7732 32.2812 14.1131 33.1016C14.4529 33.9219 14.8748 34.6953 15.367 35.4219C15.6131 35.7383 15.5896 36.207 15.2967 36.5L13.4568 38.3398L16.0232 40.9062L17.8631 39.0664C18.1326 38.7969 18.5662 38.75 18.906 38.9726C19.6443 39.4766 20.4412 39.9101 21.2732 40.25C22.0818 40.5781 22.9256 40.8359 23.8045 41.0117C24.2146 41.0586 24.531 41.3984 24.531 41.8203V44.4336H28.1521V41.8203C28.1521 41.4336 28.4334 41.0937 28.8201 41.0117C29.992 40.7891 31.117 40.4023 32.1834 39.8867ZM51.1326 37.332C46.9256 33.125 40.1053 33.125 35.8982 37.332C31.6912 41.5391 31.6912 48.3594 35.8982 52.5664C40.1053 56.7734 46.9256 56.7734 51.1326 52.5664C55.3279 48.3594 55.3279 41.5391 51.1326 37.332ZM36.6014 1.85936C36.3904 1.46093 36.531 0.968739 36.9295 0.746083C37.3279 0.535145 37.8201 0.67577 38.0428 1.06249L40.9139 6.28905C41.2068 6.82811 40.8318 7.54296 40.1287 7.49608L34.2107 7.3789C33.7654 7.36718 33.4021 6.99218 33.4139 6.54686C33.4256 6.10155 33.8006 5.73827 34.2459 5.74999L36.9412 5.80858C32.3475 3.61718 27.2029 2.92577 22.2459 3.7578C10.8435 5.65624 2.26542 15.3242 1.73808 26.9141C1.49198 32.457 3.10917 38.0351 6.51933 42.6641C6.78886 43.0273 6.70683 43.543 6.35527 43.8125C5.99198 44.082 5.47636 44 5.20683 43.6484C1.5623 38.7266 -0.16036 32.7617 0.0974528 26.8555C0.659953 14.4687 9.8123 4.15624 21.9764 2.1289C27.4139 1.22655 33.074 2.04686 38.0779 4.54296L36.6014 1.85936ZM26.3357 19.8945C30.824 19.8945 34.4568 23.5273 34.4568 28.0156C34.4568 32.5039 30.8123 36.1367 26.3357 36.1367C21.8475 36.1367 18.2029 32.5039 18.2029 28.0156C18.2029 23.5391 21.8475 19.8945 26.3357 19.8945ZM30.9178 23.4453C28.3865 20.9141 24.2732 20.9141 21.742 23.4453C19.2107 25.9766 19.2107 30.0781 21.742 32.6211C24.2732 35.1523 28.3865 35.1523 30.9178 32.6211C33.449 30.0781 33.449 25.9766 30.9178 23.4453Z" fill="#FFD362"/>
</svg>
