<svg width="28" height="34" viewBox="0 0 28 34" fill="none" xmlns="http://www.w3.org/2000/svg">
<path d="M10.4613 17.4115C11.2243 17.6877 12.0741 18.0939 12.2744 18.9626C12.2766 18.9722 12.2787 18.9813 12.2809 18.9908C12.3812 19.4267 12.3086 19.8849 12.0782 20.2686C11.5301 21.1816 10.2611 21.2352 9.32637 21.4512L9.32199 21.4497L4.12102 22.6514C3.58707 22.7747 3.05152 22.9106 2.49864 22.871C1.84868 22.8241 1.31399 22.6326 0.95229 22.06C0.458376 21.2781 0.434272 20.1248 0.428495 19.2262C0.420726 18.2322 0.579365 17.2438 0.897971 16.302C1.08443 15.7508 1.46314 15.1953 2.01429 14.9641C2.6189 14.7104 3.35618 14.9079 3.95395 15.0911L10.4613 17.4115Z" fill="#222222"/>
<path d="M21.816 10.9689C22.2456 10.5694 22.5688 10.3309 22.8673 10.1825C23.6301 9.77505 24.5365 10.154 25.0922 10.7168C25.7902 11.4237 26.3648 12.2426 26.7923 13.1397C27.1798 13.9502 27.6614 14.9979 27.5576 15.9204C27.5039 16.5697 27.0606 17.0149 26.5215 17.3278C26.0422 17.606 25.5009 17.7189 24.9675 17.8422L18.1987 19.4061C17.2645 19.634 16.251 19.0951 16.0328 18.1285C16.0307 18.1189 16.0285 18.1099 16.0264 18.1003C15.8432 17.241 16.4189 16.491 16.9788 15.9103L21.816 10.9689Z" fill="#222222"/>
<path d="M14.6772 15.9861C15.1677 15.3699 15.1665 14.4515 15.2104 13.7006C15.358 11.1918 15.5134 8.68254 15.6367 6.17234C15.6837 5.22156 15.7861 4.28361 15.7295 3.3256C15.683 2.53526 15.6772 1.62784 15.1782 0.979276C14.2974 -0.164467 12.4193 -0.0705054 11.1377 0.106926C10.7452 0.161444 10.3519 0.234688 9.96185 0.328317C9.57179 0.421947 9.18565 0.524276 8.80788 0.645197C7.57821 1.048 5.84945 1.78735 5.55674 3.20428C5.39172 4.00531 5.78278 4.82467 6.08611 5.55571C6.45386 6.44181 6.95607 7.24005 7.41386 8.07422C8.62414 10.2763 9.85686 12.4647 11.0861 14.6555C11.6285 15.622 12.3704 16.9077 13.7046 16.5976C14.0813 16.5101 14.4255 16.2768 14.6772 15.9861Z" fill="#222222"/>
<path d="M11.0871 23.1497C11.3034 22.8774 11.541 22.6058 11.8231 22.3968C12.2524 22.0741 12.7966 21.9518 13.3138 22.126C13.8103 22.2932 14.1968 22.767 14.3388 23.2769C14.457 23.7011 14.4702 24.1733 14.4541 24.5994C14.3663 26.929 14.3506 29.2694 14.1368 31.5918C14.0787 32.2237 13.9839 32.9891 13.5138 33.4601C13.0779 33.8878 12.4112 34.0284 11.8343 33.9954C11.0767 33.952 10.3282 33.8089 9.60802 33.5699C8.74264 33.2796 7.91996 32.904 7.16847 32.3812C6.68186 32.0426 6.25621 31.5257 6.17911 30.9226C6.08117 30.1563 6.59719 29.4393 6.99542 28.8333L11.0871 23.1497Z" fill="#222222"/>
<path d="M26.3835 25.5945C26.0892 25.2639 25.6873 25.0137 25.3225 24.793C23.2562 23.5431 21.0989 22.3872 18.9235 21.3394C18.1532 20.9684 17.1699 20.7106 16.4762 21.3974C15.706 22.1599 16.0903 23.2955 16.5285 24.1175C17.5808 26.0897 18.566 28.1142 19.7252 30.0263C20.0012 30.4833 20.2764 30.9573 20.6744 31.3211C21.1223 31.7305 21.7217 31.8192 22.2974 31.6868C23.2377 31.4705 24.1324 30.7122 24.8051 30.0544C25.4562 29.4136 26.0317 28.715 26.4794 27.9151C26.8844 27.1916 26.9639 26.2464 26.3835 25.5945Z" fill="#222222"/>
</svg>
